<?xml version="1.0" encoding="utf-8"?>
<!-- Generator: Adobe Illustrator 23.0.1, SVG Export Plug-In . SVG Version: 6.00 Build 0)  -->
<svg version="1.1" id="Layer_1" xmlns="http://www.w3.org/2000/svg" xmlns:xlink="http://www.w3.org/1999/xlink" x="0px" y="0px"
	 viewBox="0 0 391.9 115.6" style="enable-background:new 0 0 391.9 115.6;" xml:space="preserve">
<style type="text/css">
	.st0{fill:#FFFFFF;}
</style>
<g>
	<path class="st0" d="M308.9,106.2c-0.3,0.3-0.5,0.4-0.7,0.4c-0.1,0-0.2,0-0.3-0.1c-0.1-0.1-0.1-0.2-0.1-0.3s0.1-0.6,0.4-1.5
		l1.1-3.3c0.3-0.8,0.4-1.4,0.4-1.7c0-0.5-0.1-0.8-0.4-1.1c-0.3-0.2-0.6-0.4-1-0.4c-1.2,0-2.4,1.2-3.6,3.7c0.5-1.2,0.7-2.1,0.7-2.7
		c0-0.3-0.1-0.6-0.2-0.7s-0.3-0.2-0.6-0.2c-0.8,0-1.6,0.8-2.4,2.3h0.5c0.6-1,1-1.5,1.4-1.5c0.1,0,0.2,0,0.2,0.1s0.1,0.1,0.1,0.3
		s-0.2,0.8-0.5,1.8l-1.8,5.8h1.2l0.5-1.6c0.6-2,1.3-3.6,2.1-4.8c0.8-1.2,1.5-1.8,2-1.8c0.2,0,0.4,0.1,0.5,0.2
		c0.1,0.1,0.1,0.3,0.1,0.5c0,0.3-0.1,0.8-0.4,1.7l-1.1,3.1c-0.3,0.9-0.5,1.5-0.5,1.8c0,0.4,0.1,0.6,0.3,0.8c0.2,0.2,0.5,0.3,0.8,0.3
		c0.4,0,0.9-0.2,1.3-0.6c0.4-0.4,0.8-0.9,1.3-1.7h-0.5C309.5,105.5,309.2,105.9,308.9,106.2 M296.8,101.2c0.6-1.6,1.4-2.4,2.2-2.4
		c0.4,0,0.6,0.1,0.8,0.4c0.2,0.2,0.3,0.6,0.3,1.1c0,0.9-0.3,2.2-0.9,4c-0.6,1.7-1.3,2.6-2.3,2.6c-0.3,0-0.6-0.1-0.8-0.4
		c-0.2-0.3-0.3-0.6-0.3-0.9C295.8,104.2,296.1,102.8,296.8,101.2 M295.4,106.5c0.4,0.4,0.9,0.7,1.5,0.7s1.3-0.3,1.9-0.8
		c0.7-0.5,1.2-1.2,1.6-2.2s0.7-2,0.7-3c0-0.9-0.2-1.6-0.6-2.1s-0.9-0.8-1.5-0.8c-0.7,0-1.4,0.3-2.1,0.9c-0.7,0.6-1.3,1.4-1.6,2.3
		c-0.4,1-0.6,1.9-0.6,2.7C294.7,105.3,295,106.1,295.4,106.5 M287.9,102.3c0.6-1.3,1.1-2.2,1.6-2.7s1-0.8,1.4-0.8
		c0.3,0,0.5,0.1,0.7,0.3s0.3,0.4,0.3,0.7c0,0.4-0.3,1.3-0.8,2.8s-1.1,2.5-1.7,3.1s-1.1,1-1.6,1c-0.3,0-0.5-0.1-0.6-0.3
		s-0.2-0.5-0.2-0.9C287.1,104.6,287.3,103.6,287.9,102.3 M292.4,106.1c-0.2,0.2-0.5,0.4-0.7,0.4c-0.1,0-0.2,0-0.3-0.1
		c-0.1-0.1-0.1-0.2-0.1-0.4s0.2-1,0.6-2.3l3.3-10.8H295c-0.6,0.2-1.4,0.4-2.4,0.4l-0.1,0.4h0.3c0.4,0,0.6,0,0.7,0.1s0.1,0.2,0.1,0.3
		s-0.1,0.4-0.2,0.9l-1.2,4.1c-0.1-0.3-0.3-0.5-0.5-0.6s-0.5-0.2-0.8-0.2c-0.6,0-1.3,0.3-2.1,0.9c-0.8,0.6-1.5,1.5-2,2.6
		S286,104,286,105c0,0.7,0.2,1.2,0.5,1.6c0.3,0.4,0.7,0.6,1.2,0.6c0.8,0,1.7-0.6,2.7-1.8c0,0.2-0.1,0.3-0.1,0.5c0,0.4,0.1,0.8,0.3,1
		c0.2,0.2,0.5,0.3,0.8,0.3c0.4,0,0.8-0.2,1.3-0.7c0.5-0.4,0.9-0.9,1.2-1.5h-0.5C292.9,105.5,292.7,105.9,292.4,106.1 M283.7,106.2
		c-0.3,0.3-0.5,0.4-0.7,0.4c-0.1,0-0.2,0-0.3-0.1c-0.1-0.1-0.1-0.2-0.1-0.3s0.1-0.6,0.4-1.5l1.1-3.3c0.3-0.8,0.4-1.4,0.4-1.7
		c0-0.5-0.1-0.8-0.4-1.1c-0.3-0.2-0.6-0.4-1-0.4c-1.2,0-2.4,1.2-3.6,3.7c0.5-1.2,0.7-2.1,0.7-2.7c0-0.3-0.1-0.6-0.2-0.7
		s-0.3-0.2-0.6-0.2c-0.8,0-1.6,0.8-2.4,2.3h0.5c0.6-1,1-1.5,1.4-1.5c0.1,0,0.2,0,0.2,0.1s0.1,0.1,0.1,0.3s-0.2,0.8-0.5,1.8l-1.8,5.8
		h1.2l0.5-1.6c0.6-2,1.3-3.6,2.1-4.8c0.8-1.2,1.5-1.8,2-1.8c0.2,0,0.4,0.1,0.5,0.2c0.1,0.1,0.1,0.3,0.1,0.5c0,0.3-0.1,0.8-0.4,1.7
		l-1.1,3.1c-0.3,0.9-0.5,1.5-0.5,1.8c0,0.4,0.1,0.6,0.3,0.8c0.2,0.2,0.5,0.3,0.8,0.3c0.4,0,0.9-0.2,1.3-0.6c0.4-0.4,0.8-0.9,1.3-1.7
		h-0.5C284.2,105.5,283.9,105.9,283.7,106.2 M271.5,101.2c0.6-1.6,1.4-2.4,2.2-2.4c0.4,0,0.6,0.1,0.8,0.4c0.2,0.2,0.3,0.6,0.3,1.1
		c0,0.9-0.3,2.2-0.9,4c-0.6,1.7-1.3,2.6-2.3,2.6c-0.3,0-0.6-0.1-0.8-0.4c-0.2-0.3-0.3-0.6-0.3-0.9
		C270.6,104.2,270.9,102.8,271.5,101.2 M270.1,106.5c0.4,0.4,0.9,0.7,1.5,0.7s1.3-0.3,1.9-0.8c0.7-0.5,1.2-1.2,1.6-2.2s0.7-2,0.7-3
		c0-0.9-0.2-1.6-0.6-2.1s-0.9-0.8-1.5-0.8c-0.7,0-1.4,0.3-2.1,0.9c-0.7,0.6-1.3,1.4-1.6,2.3c-0.4,1-0.6,1.9-0.6,2.7
		C269.5,105.3,269.7,106.1,270.1,106.5 M267.3,105.5c-0.7,0.7-1.8,1-3.2,1h-0.7c-0.9,0-1.4-0.1-1.7-0.2c-0.3-0.2-0.4-0.4-0.4-0.7
		c0-0.1,0.1-0.6,0.3-1.2l2.6-8.5c0.3-0.9,0.5-1.4,0.6-1.6c0.1-0.2,0.3-0.4,0.6-0.5c0.3-0.1,0.6-0.2,1.1-0.2h0.4l0.1-0.5h-5.7
		l-0.1,0.5h0.3c0.9,0,1.3,0.2,1.3,0.7c0,0.2-0.1,0.6-0.3,1.3l-2.7,8.8c-0.2,0.7-0.4,1.1-0.5,1.3s-0.3,0.4-0.6,0.5
		c-0.3,0.2-0.7,0.2-1.1,0.2h-0.3l-0.1,0.5h11l1.1-3.5h-0.4C268.5,104.1,268,104.8,267.3,105.5 M250.6,106.1
		c-0.3,0.3-0.6,0.5-0.9,0.5c-0.2,0-0.3-0.1-0.4-0.2c-0.1-0.1-0.1-0.3-0.1-0.5c0-0.3,0.1-0.8,0.3-1.3c0.1-0.4,0.2-0.8,0.3-0.9
		l3.3-10.8h-0.3c-0.5,0.2-1.4,0.3-2.5,0.4l-0.1,0.4h0.4c0.4,0,0.6,0,0.7,0.1s0.1,0.2,0.1,0.3s-0.1,0.5-0.3,1.2l-2.4,7.9
		c-0.4,1.5-0.7,2.4-0.7,2.7c0,0.4,0.1,0.7,0.3,0.9c0.2,0.2,0.5,0.4,0.9,0.4c1.1,0,2-0.9,2.7-2.7h-0.4
		C251.3,105.3,251,105.8,250.6,106.1 M241.6,101.3c0.9-1.6,1.8-2.5,2.6-2.5c0.3,0,0.5,0.1,0.6,0.3s0.2,0.4,0.2,0.7
		c0,0.5-0.2,1.4-0.7,2.8c-0.5,1.4-1,2.4-1.6,3c-0.6,0.7-1.2,1-1.6,1c-0.3,0-0.5-0.1-0.6-0.3s-0.2-0.6-0.2-1
		C240.3,104.2,240.7,102.9,241.6,101.3 M245.4,99.3c-0.1-0.3-0.2-0.6-0.4-0.8c-0.2-0.2-0.5-0.3-0.8-0.3c-0.6,0-1.3,0.4-2.2,1.1
		c-0.9,0.7-1.5,1.6-2.1,2.6c-0.5,1.1-0.8,2.1-0.8,3c0,0.7,0.2,1.2,0.5,1.6s0.8,0.6,1.2,0.6c0.5,0,1.1-0.3,1.6-0.8
		c0.6-0.5,1-1,1.3-1.6c-0.1,0.4-0.2,0.8-0.2,1.1s0.1,0.6,0.3,0.9c0.2,0.2,0.4,0.4,0.7,0.4c0.4,0,0.9-0.2,1.4-0.8
		c0.5-0.5,0.9-1.1,1.1-1.7h-0.4c-0.6,1.1-1.2,1.6-1.6,1.6c-0.1,0-0.2,0-0.3-0.1c-0.1-0.1-0.1-0.2-0.1-0.3c0-0.2,0.1-0.7,0.4-1.6
		l1.8-6h-1.2L245.4,99.3z M237.7,98.6l0.9-3.1h-1.2l-0.9,3.1h-1.4L235,99h1.4l-1.3,4.4c-0.4,1.4-0.6,2.2-0.6,2.6
		c0,0.4,0.1,0.7,0.3,0.9c0.2,0.2,0.5,0.4,0.8,0.4c0.4,0,0.9-0.3,1.5-0.8c0.5-0.5,1-1.3,1.4-2.3H238c-0.3,0.7-0.7,1.3-1.1,1.7
		c-0.4,0.5-0.7,0.7-1,0.7c-0.1,0-0.2,0-0.3-0.1c-0.1-0.1-0.1-0.2-0.1-0.4s0.2-1.1,0.7-2.6l1.3-4.5h1.5l0.1-0.4L237.7,98.6
		L237.7,98.6z M231.1,106.5c-0.2,0-0.3,0-0.3-0.1s-0.1-0.2-0.1-0.4s0.2-0.8,0.5-1.8l1-2.7c0.4-1,0.5-1.6,0.5-2s-0.1-0.6-0.3-0.9
		c-0.2-0.2-0.5-0.3-0.8-0.3c-0.4,0-0.9,0.2-1.3,0.6c-0.5,0.4-0.9,1-1.3,1.8h0.5c0.2-0.3,0.4-0.7,0.8-1.1c0.4-0.4,0.7-0.6,0.9-0.6
		c0.1,0,0.2,0,0.3,0.1c0.1,0.1,0.1,0.2,0.1,0.3c0,0.2-0.1,0.6-0.4,1.3l-1.2,3.1c-0.4,1-0.6,1.7-0.6,2.1c0,0.4,0.1,0.8,0.4,1
		c0.2,0.2,0.5,0.3,0.8,0.3c0.5,0,1-0.3,1.5-0.8s0.9-1.1,1.3-1.8h-0.5C232.2,105.9,231.6,106.5,231.1,106.5 M232.4,94.4
		c0.2,0.2,0.4,0.3,0.6,0.3s0.5-0.1,0.6-0.3c0.2-0.2,0.3-0.4,0.3-0.6c0-0.2-0.1-0.5-0.3-0.6c-0.2-0.2-0.4-0.3-0.6-0.3
		s-0.5,0.1-0.6,0.3c-0.2,0.2-0.3,0.4-0.3,0.6S232.2,94.2,232.4,94.4 M222.9,102.9c0.5-1.7,1.1-2.8,1.7-3.3s1.1-0.8,1.5-0.8
		c0.3,0,0.5,0.1,0.6,0.3s0.2,0.5,0.2,1c0,0.7-0.2,1.7-0.6,3s-0.9,2.3-1.4,2.8c-0.5,0.6-1,0.9-1.5,0.9c-0.3,0-0.6-0.1-0.8-0.3
		s-0.3-0.5-0.3-0.8s0.1-0.7,0.3-1.3L222.9,102.9z M222.3,100c0.2-0.3,0.3-0.5,0.3-0.5c0.3-0.5,0.5-0.8,0.5-0.9
		c-0.6,1.5-1.1,3-1.6,4.5l-2.1,7c-0.2,0.8-0.4,1.2-0.5,1.3s-0.5,0.1-1.1,0.1h-0.2l-0.1,0.4h4.3l0.1-0.4h-0.5c-0.5,0-0.8,0-0.9-0.1
		s-0.1-0.2-0.1-0.3s0.1-0.4,0.2-0.9l1.2-4c0.2,0.7,0.7,1,1.4,1c0.8,0,1.5-0.3,2.3-1s1.4-1.6,1.8-2.6s0.6-2,0.6-2.8
		c0-0.7-0.2-1.3-0.5-1.8c-0.4-0.5-0.8-0.7-1.3-0.7c-0.8,0-1.7,0.7-2.6,2l0.9-2.4l0.7-2.3h-1.2l-0.1,0.5c-0.2,0.8-0.4,1.3-0.6,1.7
		s-0.5,1-1.1,1.9l-1.9,3.1h0.5L222.3,100z M218.1,103.5c-0.1-0.4-0.4-0.9-0.9-1.7s-0.7-1.4-0.7-1.9c0-0.3,0.1-0.6,0.4-0.8
		s0.6-0.3,1-0.3c0.5,0,0.8,0.2,0.9,0.7c0.1,0.4,0.3,0.6,0.5,0.6c0.3,0,0.4-0.2,0.4-0.5s-0.2-0.5-0.5-0.8c-0.3-0.2-0.8-0.4-1.2-0.4
		c-0.7,0-1.2,0.2-1.8,0.7c-0.5,0.4-0.8,1-0.8,1.7c0,0.5,0.3,1.3,0.9,2.4c0.5,1,0.8,1.7,0.8,2.1c0,0.5-0.2,0.9-0.6,1.2
		s-0.8,0.4-1.2,0.4c-0.3,0-0.5-0.1-0.8-0.2c-0.2-0.1-0.3-0.3-0.3-0.4c0,0,0-0.1,0-0.2c0-0.2,0.1-0.3,0.1-0.4c0-0.4-0.2-0.6-0.6-0.6
		c-0.2,0-0.3,0.1-0.4,0.2c-0.1,0.1-0.2,0.3-0.2,0.5c0,0.4,0.2,0.7,0.5,1c0.4,0.3,0.9,0.5,1.6,0.5c0.9,0,1.7-0.3,2.2-0.8
		s0.7-1.1,0.7-1.7C218.4,104.3,218.3,103.9,218.1,103.5 M208.3,101.2c0.6-1.6,1.3-2.4,2.2-2.4c0.4,0,0.6,0.1,0.8,0.4
		c0.2,0.2,0.3,0.6,0.3,1.1c0,0.9-0.3,2.2-0.9,4c-0.6,1.7-1.3,2.6-2.3,2.6c-0.3,0-0.6-0.1-0.8-0.4c-0.2-0.3-0.3-0.6-0.3-0.9
		C207.4,104.2,207.7,102.8,208.3,101.2 M206.9,106.5c0.4,0.4,0.9,0.7,1.5,0.7s1.3-0.3,1.9-0.8c0.7-0.5,1.2-1.2,1.6-2.2s0.7-2,0.7-3
		c0-0.9-0.2-1.6-0.6-2.1s-0.9-0.8-1.5-0.8c-0.7,0-1.4,0.3-2.1,0.9c-0.7,0.6-1.3,1.4-1.6,2.3c-0.4,1-0.6,1.9-0.6,2.7
		C206.3,105.3,206.5,106.1,206.9,106.5 M200.6,104.3c-0.2,0.7-0.4,1.2-0.5,1.4s-0.3,0.4-0.6,0.6c-0.3,0.2-0.7,0.2-1.2,0.2l-0.1,0.5
		h5.5l0.1-0.5c-1,0-1.6-0.3-1.6-1c0-0.2,0.1-0.6,0.3-1.2l2.6-8.5c0.3-0.8,0.4-1.4,0.5-1.6c0.1-0.2,0.3-0.4,0.6-0.5
		c0.3-0.1,0.6-0.2,1-0.2l0.1-0.5h-5l-0.1,0.5c0.9,0,1.4,0.2,1.4,0.7c0,0.2-0.1,0.6-0.3,1.3l-1.2,3.9h-6.6l1.1-3.6
		c0.3-0.9,0.5-1.4,0.6-1.6c0.1-0.2,0.3-0.4,0.6-0.5c0.3-0.1,0.6-0.2,1.1-0.2L199,93h-5.2l-0.1,0.5c0.6,0,0.9,0.1,1.2,0.2
		c0.2,0.1,0.3,0.3,0.3,0.6c0,0.2-0.1,0.6-0.3,1.3l-2.7,8.8c-0.2,0.7-0.4,1.2-0.5,1.4s-0.3,0.4-0.6,0.5c-0.3,0.1-0.7,0.2-1.1,0.2
		l-0.1,0.5h5.3l0.1-0.5c-1,0-1.5-0.3-1.5-1c0-0.2,0.1-0.6,0.3-1.2l1.3-4.3h6.6L200.6,104.3z M181.9,100c0.6-0.8,1-1.2,1.4-1.2
		c0.2,0,0.4,0.1,0.5,0.2c0.1,0.1,0.2,0.3,0.2,0.6c0,0.6-0.4,1.2-1.1,1.9s-1.5,1.2-2.4,1.6C180.9,101.8,181.3,100.8,181.9,100
		 M181.1,106.6c-0.3,0-0.6-0.1-0.8-0.3c-0.2-0.2-0.3-0.5-0.3-1s0.1-1.1,0.3-1.7c1.5-0.6,2.6-1.3,3.3-2c0.7-0.7,1.1-1.4,1.1-2.1
		c0-0.4-0.1-0.7-0.3-0.9c-0.2-0.2-0.5-0.4-0.9-0.4c-0.6,0-1.3,0.4-2.2,1.2c-0.8,0.8-1.5,1.7-1.9,2.7c-0.5,1.1-0.7,2-0.7,2.9
		c0,0.7,0.2,1.2,0.5,1.6c0.4,0.4,0.8,0.6,1.4,0.6c1.4,0,2.5-1,3.3-2.9h-0.5C182.8,105.9,182,106.6,181.1,106.6 M174,100.2
		c0.5-1,1.1-1.5,1.7-1.5c0.3,0,0.6,0.1,0.8,0.4s0.2,0.6,0.2,1.1c0,0.6-0.1,1.3-0.4,2.1s-0.6,1.4-0.9,1.7s-0.6,0.4-1,0.4
		c-0.3,0-0.6-0.1-0.8-0.3c-0.2-0.2-0.3-0.5-0.3-0.9C173.3,102.1,173.5,101.2,174,100.2 M171.7,105.3c-0.4,0.4-0.7,0.8-0.7,1.2
		c0,0.3,0.1,0.6,0.4,0.8c0.3,0.3,0.9,0.5,2,0.8c1.2,0.3,2,0.5,2.3,0.8c0.4,0.2,0.5,0.5,0.5,0.9c0,0.5-0.3,0.9-0.8,1.2
		s-1.3,0.5-2.3,0.5c-0.9,0-1.6-0.2-2.1-0.5c-0.4-0.3-0.7-0.7-0.7-1.2c0-0.3,0.1-0.6,0.4-0.9c0.2-0.2,0.2-0.3,0.2-0.4
		c0-0.2-0.1-0.3-0.4-0.3c-0.2,0-0.5,0.2-0.9,0.5c-0.3,0.3-0.5,0.7-0.5,1.1c0,0.6,0.3,1.1,1,1.5s1.6,0.6,2.9,0.6s2.3-0.3,3-0.8
		s1.1-1.1,1.1-1.8c0-0.4-0.1-0.8-0.4-1.2c-0.3-0.3-0.7-0.6-1.3-0.8s-1.4-0.4-2.3-0.6c-0.5-0.1-0.9-0.2-1.1-0.4
		c-0.2-0.1-0.3-0.3-0.3-0.5c0-0.6,0.7-1,2.2-1.2c1-0.1,1.8-0.5,2.5-1.2s1-1.6,1-2.8c0-0.6-0.1-1.2-0.4-1.6c0.1-0.2,0.2-0.3,0.4-0.3
		c0.1,0,0.2,0.1,0.3,0.2c0.2,0.2,0.3,0.3,0.5,0.3c0.3,0,0.5-0.2,0.5-0.5c0-0.2-0.1-0.4-0.2-0.5c-0.2-0.1-0.4-0.2-0.6-0.2
		c-0.3,0-0.7,0.2-1.1,0.6c-0.2-0.2-0.4-0.3-0.7-0.4c-0.2-0.1-0.5-0.1-0.8-0.1c-0.9,0-1.7,0.4-2.4,1.2c-0.7,0.8-1.1,1.7-1.1,2.7
		c0,0.5,0.1,1,0.3,1.4c0.2,0.4,0.6,0.7,1,1C172.7,104.6,172.1,104.9,171.7,105.3 M167.6,100c0.6-0.8,1-1.2,1.4-1.2
		c0.2,0,0.4,0.1,0.5,0.2c0.1,0.1,0.2,0.3,0.2,0.6c0,0.6-0.4,1.2-1.1,1.9s-1.5,1.2-2.4,1.6C166.6,101.8,167,100.8,167.6,100
		 M166.8,106.6c-0.3,0-0.6-0.1-0.8-0.3c-0.2-0.2-0.3-0.5-0.3-1s0.1-1.1,0.3-1.7c1.5-0.6,2.6-1.3,3.3-2c0.7-0.7,1.1-1.4,1.1-2.1
		c0-0.4-0.1-0.7-0.3-0.9c-0.2-0.2-0.5-0.4-0.9-0.4c-0.6,0-1.3,0.4-2.2,1.2c-0.8,0.8-1.5,1.7-1.9,2.7c-0.5,1.1-0.7,2-0.7,2.9
		c0,0.7,0.2,1.2,0.5,1.6c0.4,0.4,0.8,0.6,1.4,0.6c1.4,0,2.5-1,3.3-2.9h-0.5C168.6,105.9,167.7,106.6,166.8,106.6 M162.5,106.1
		c-0.3,0.3-0.6,0.5-0.9,0.5c-0.2,0-0.3-0.1-0.4-0.2c-0.1-0.1-0.1-0.3-0.1-0.5c0-0.3,0.1-0.8,0.3-1.3c0.1-0.4,0.2-0.8,0.3-0.9
		l3.3-10.8h-0.3c-0.5,0.2-1.4,0.3-2.5,0.4l-0.1,0.4h0.4c0.4,0,0.6,0,0.7,0.1s0.1,0.2,0.1,0.3s-0.1,0.5-0.3,1.2l-2.4,7.9
		c-0.4,1.5-0.7,2.4-0.7,2.7c0,0.4,0.1,0.7,0.3,0.9c0.2,0.2,0.5,0.4,0.9,0.4c1.1,0,2-0.9,2.7-2.7h-0.4
		C163.2,105.3,162.8,105.8,162.5,106.1 M157.5,106.1c-0.3,0.3-0.6,0.5-0.9,0.5c-0.2,0-0.3-0.1-0.4-0.2c-0.1-0.1-0.1-0.3-0.1-0.5
		c0-0.3,0.1-0.8,0.3-1.3c0.2-0.4,0.2-0.8,0.3-0.9l3.3-10.8h-0.3c-0.5,0.2-1.4,0.3-2.5,0.4l-0.1,0.4h0.4c0.4,0,0.6,0,0.7,0.1
		s0.1,0.2,0.1,0.3s-0.1,0.5-0.3,1.2l-2.4,7.9c-0.4,1.5-0.7,2.4-0.7,2.7c0,0.4,0.1,0.7,0.3,0.9c0.2,0.2,0.5,0.4,0.9,0.4
		c1.1,0,2-0.9,2.7-2.7h-0.4C158.2,105.3,157.8,105.8,157.5,106.1 M149.1,101.2c0.6-1.6,1.3-2.4,2.2-2.4c0.4,0,0.6,0.1,0.8,0.4
		c0.2,0.2,0.3,0.6,0.3,1.1c0,0.9-0.3,2.2-0.9,4c-0.6,1.7-1.3,2.6-2.3,2.6c-0.3,0-0.6-0.1-0.8-0.4c-0.2-0.3-0.3-0.6-0.3-0.9
		C148.2,104.2,148.5,102.8,149.1,101.2 M147.7,106.5c0.4,0.4,0.9,0.7,1.5,0.7s1.3-0.3,1.9-0.8c0.7-0.5,1.2-1.2,1.6-2.2s0.7-2,0.7-3
		c0-0.9-0.2-1.6-0.6-2.1s-0.9-0.8-1.5-0.8c-0.7,0-1.4,0.3-2.1,0.9c-0.7,0.6-1.3,1.4-1.6,2.3c-0.4,1-0.6,1.9-0.6,2.7
		C147.1,105.3,147.3,106.1,147.7,106.5 M140.5,106.7c-1,0-1.7-0.4-2.3-1.1c-0.6-0.8-0.8-1.7-0.8-2.9c0-1.3,0.3-2.9,1-4.6
		s1.4-3,2.3-3.7s1.8-1.1,2.8-1.1c0.9,0,1.6,0.3,2.2,0.9c0.6,0.6,0.8,1.5,0.8,2.7c0,0.2,0,0.3,0,0.5h0.4l0.9-4h-0.4
		c-0.2,0.5-0.4,1.1-0.7,1.6c-0.3-0.7-0.7-1.3-1.3-1.6c-0.6-0.4-1.3-0.5-2.1-0.5c-2,0-3.8,1-5.3,2.9c-1.6,1.9-2.4,4-2.4,6.2
		c0,1.4,0.4,2.6,1.3,3.7c0.9,1.1,2,1.6,3.5,1.6c1.3,0,2.4-0.5,3.4-1.5c0.1,0.5,0.1,1,0.1,1.4h0.4l1.4-4.5h-0.5
		C144,105.3,142.4,106.7,140.5,106.7 M126.9,103.5c-0.1-0.4-0.4-0.9-0.9-1.7s-0.7-1.4-0.7-1.9c0-0.3,0.1-0.6,0.4-0.8s0.6-0.3,1-0.3
		c0.5,0,0.8,0.2,0.9,0.7c0.1,0.4,0.3,0.6,0.5,0.6c0.3,0,0.4-0.2,0.4-0.5s-0.2-0.5-0.5-0.8c-0.3-0.2-0.8-0.4-1.2-0.4
		c-0.7,0-1.2,0.2-1.8,0.7c-0.5,0.4-0.8,1-0.8,1.7c0,0.5,0.3,1.3,0.9,2.4c0.5,1,0.8,1.7,0.8,2.1c0,0.5-0.2,0.9-0.6,1.2
		s-0.8,0.4-1.2,0.4c-0.3,0-0.5-0.1-0.8-0.2c-0.2-0.1-0.3-0.3-0.3-0.4c0,0,0-0.1,0-0.2c0-0.2,0.1-0.3,0.1-0.4c0-0.4-0.2-0.6-0.6-0.6
		c-0.2,0-0.3,0.1-0.4,0.2c-0.1,0.1-0.2,0.3-0.2,0.5c0,0.4,0.2,0.7,0.5,1c0.4,0.3,0.9,0.5,1.6,0.5c0.9,0,1.7-0.3,2.1-0.8
		c0.5-0.5,0.7-1.1,0.7-1.7C127.2,104.3,127.1,103.9,126.9,103.5 M117.7,100.2c0.5-1,1.1-1.5,1.7-1.5c0.3,0,0.6,0.1,0.8,0.4
		c0.2,0.2,0.3,0.6,0.3,1.1c0,0.6-0.1,1.3-0.4,2.1s-0.6,1.4-0.9,1.7s-0.6,0.4-1,0.4c-0.3,0-0.6-0.1-0.8-0.3c-0.2-0.2-0.3-0.5-0.3-0.9
		C116.9,102.1,117.2,101.2,117.7,100.2 M115.3,105.3c-0.4,0.4-0.7,0.8-0.7,1.2c0,0.3,0.1,0.6,0.4,0.8c0.3,0.3,0.9,0.5,2,0.8
		c1.2,0.3,2,0.5,2.3,0.8c0.4,0.2,0.5,0.5,0.5,0.9c0,0.5-0.3,0.9-0.8,1.2s-1.3,0.5-2.3,0.5c-0.9,0-1.6-0.2-2.1-0.5
		c-0.4-0.3-0.7-0.7-0.7-1.2c0-0.3,0.1-0.6,0.4-0.9c0.2-0.2,0.2-0.3,0.2-0.4c0-0.2-0.1-0.3-0.4-0.3c-0.2,0-0.5,0.2-0.9,0.5
		c-0.3,0.3-0.5,0.7-0.5,1.1c0,0.6,0.3,1.1,1,1.5s1.6,0.6,2.9,0.6s2.3-0.3,3-0.8s1.1-1.1,1.1-1.8c0-0.4-0.1-0.8-0.4-1.2
		c-0.3-0.3-0.7-0.6-1.3-0.8c-0.6-0.2-1.4-0.4-2.3-0.6c-0.5-0.1-0.9-0.2-1.1-0.4c-0.2-0.1-0.3-0.3-0.3-0.5c0-0.6,0.7-1,2.2-1.2
		c1-0.1,1.8-0.5,2.5-1.2s1-1.6,1-2.8c0-0.6-0.1-1.2-0.4-1.6c0.1-0.2,0.2-0.3,0.4-0.3c0.1,0,0.2,0.1,0.3,0.2c0.2,0.2,0.3,0.3,0.5,0.3
		c0.3,0,0.5-0.2,0.5-0.5c0-0.2-0.1-0.4-0.2-0.5c-0.2-0.1-0.4-0.2-0.6-0.2c-0.3,0-0.7,0.2-1.1,0.6c-0.2-0.2-0.4-0.3-0.7-0.4
		c-0.2-0.1-0.5-0.1-0.8-0.1c-0.9,0-1.7,0.4-2.4,1.2c-0.7,0.8-1.1,1.7-1.1,2.7c0,0.5,0.1,1,0.3,1.4c0.2,0.4,0.6,0.7,1,1
		C116.4,104.6,115.8,104.9,115.3,105.3 M112.9,106.2c-0.3,0.3-0.5,0.4-0.7,0.4c-0.1,0-0.2,0-0.3-0.1c-0.1-0.1-0.1-0.2-0.1-0.3
		s0.1-0.6,0.4-1.5l1.1-3.3c0.3-0.8,0.4-1.4,0.4-1.7c0-0.5-0.1-0.8-0.4-1.1c-0.3-0.2-0.6-0.4-1-0.4c-1.2,0-2.4,1.2-3.6,3.7
		c0.5-1.2,0.7-2.1,0.7-2.7c0-0.3-0.1-0.6-0.2-0.7s-0.3-0.2-0.6-0.2c-0.8,0-1.6,0.8-2.4,2.3h0.5c0.6-1,1-1.5,1.4-1.5
		c0.1,0,0.2,0,0.2,0.1s0.1,0.1,0.1,0.3s-0.2,0.8-0.5,1.8l-1.8,5.8h1.2l0.5-1.6c0.6-2,1.3-3.6,2.1-4.8c0.8-1.2,1.5-1.8,2-1.8
		c0.2,0,0.4,0.1,0.5,0.2c0.1,0.1,0.1,0.3,0.1,0.5c0,0.3-0.1,0.8-0.4,1.7l-1.1,3.1c-0.3,0.9-0.5,1.5-0.5,1.8c0,0.4,0.1,0.6,0.3,0.8
		c0.2,0.2,0.5,0.3,0.8,0.3c0.4,0,0.9-0.2,1.3-0.6c0.4-0.4,0.8-0.9,1.3-1.7h-0.5C113.5,105.5,113.2,105.9,112.9,106.2 M103.3,106.5
		c-0.1,0-0.3,0-0.3-0.1c-0.1-0.1-0.1-0.2-0.1-0.4s0.2-0.8,0.5-1.8l1-2.7c0.4-1,0.5-1.6,0.5-2s-0.1-0.6-0.3-0.9
		c-0.2-0.2-0.5-0.3-0.8-0.3c-0.4,0-0.9,0.2-1.3,0.6s-0.9,1-1.3,1.8h0.5c0.1-0.3,0.4-0.7,0.8-1.1c0.4-0.4,0.7-0.6,0.9-0.6
		c0.1,0,0.2,0,0.3,0.1s0.1,0.2,0.1,0.3c0,0.2-0.1,0.6-0.4,1.3l-1.2,3.1c-0.4,1-0.6,1.7-0.6,2.1c0,0.4,0.1,0.8,0.4,1
		c0.2,0.2,0.5,0.3,0.8,0.3c0.5,0,1-0.3,1.5-0.8s0.9-1.1,1.3-1.8h-0.5C104.4,105.9,103.8,106.5,103.3,106.5 M104.6,94.4
		c0.2,0.2,0.4,0.3,0.6,0.3c0.2,0,0.5-0.1,0.6-0.3c0.2-0.2,0.3-0.4,0.3-0.6c0-0.2-0.1-0.5-0.3-0.6c-0.2-0.2-0.4-0.3-0.6-0.3
		c-0.2,0-0.5,0.1-0.6,0.3c-0.2,0.2-0.3,0.4-0.3,0.6C104.3,94,104.4,94.2,104.6,94.4 M99.3,106c-0.2,0.1-0.4,0.1-0.6,0.1
		c-0.5,0-0.8-0.3-0.8-1c0-0.2,0-0.3,0-0.6c0.1-0.6,0.1-1.1,0.1-1.4c0-1.1-0.2-1.9-0.7-2.6c-0.5-0.6-1.1-1-1.9-1
		c-0.3,0-0.6,0.1-0.9,0.2c0.1-0.1,0.7-0.8,1.8-2s2.1-2.1,3-2.9c0.9-0.7,1.5-1.2,1.7-1.3c0.3-0.1,0.5-0.2,0.7-0.2
		c0.3,0,0.5,0.2,0.6,0.6c0.1,0.4,0.3,0.6,0.6,0.6c0.2,0,0.4-0.1,0.6-0.2c0.2-0.1,0.2-0.3,0.2-0.6s-0.1-0.6-0.4-0.8
		c-0.2-0.2-0.5-0.3-0.9-0.3c-0.9,0-2,0.6-3.4,1.7c-1.3,1.1-3.1,2.9-5.2,5.2l1.2-3.9c0.3-0.9,0.5-1.4,0.6-1.7
		c0.2-0.2,0.4-0.4,0.6-0.5c0.3-0.1,0.6-0.1,1-0.1l0.1-0.5h-5.4l-0.1,0.5h0.4c0.9,0,1.3,0.2,1.3,0.7c0,0.2-0.1,0.6-0.3,1.3l-2.6,8.7
		c-0.2,0.7-0.4,1.2-0.5,1.4s-0.3,0.4-0.6,0.5s-0.7,0.2-1.1,0.2l-0.1,0.5h5.4l0.1-0.5c-1.1,0-1.6-0.3-1.6-1c0-0.2,0.1-0.6,0.3-1.2
		l0.5-1.7c0.3-1,0.6-1.7,0.8-2c0.3-0.3,0.6-0.5,1-0.5s0.8,0.1,1,0.4c0.3,0.3,0.4,0.7,0.4,1.3c0,0.4-0.1,1-0.2,1.7
		c-0.2,0.7-0.2,1.2-0.2,1.5c0,0.5,0.2,1,0.5,1.3c0.3,0.4,0.8,0.6,1.5,0.6c0.5,0,1-0.1,1.3-0.4c0.4-0.2,0.7-0.6,0.9-1.1h-0.5
		C99.6,105.8,99.4,105.9,99.3,106"/>
</g>
<path class="st0" d="M309.2,24.5c1.1,0,2-0.3,2.6-0.9s0.9-1.5,0.9-2.6s-0.3-2-0.9-2.6s-1.5-0.9-2.6-0.9c-1.2,0-2.1,0.3-2.8,0.9
	c-0.7,0.6-1,1.5-1,2.6s0.3,2,1,2.6C307.1,24.1,308,24.5,309.2,24.5"/>
<g>
	<path class="st0" d="M371.6,42.8c0-1.8,0.5-3.1,1.5-4s2.3-1.4,4-1.4c2.3,0,4.5,0.7,6.6,2c2.1,1.4,3.1,3,3.1,5.1
		c0,0.1,0.2,0.2,0.6,0.2s0.6-0.1,0.6-0.2l0.1-3.7c0.1-0.7,0.1-1.6,0.1-2.8c0-0.3,0-0.4-0.1-0.6s-0.3-0.3-0.7-0.5
		c-2.1-0.9-4.4-1.4-6.7-1.4c-3.4,0-6.4,0.9-8.9,2.7c-2.5,1.8-3.8,4.4-3.8,7.7c0,2,0.4,3.6,1.3,4.9c0.8,1.3,1.9,2.4,3.1,3.2
		c1.2,0.8,2.9,1.7,5,2.7c2,0.9,3.6,1.8,4.8,2.6c1.2,0.8,2.1,1.7,2.9,3c0.8,1.2,1.2,2.8,1.2,4.6c0,1.8-0.6,3.2-1.7,4.2
		c-1.1,0.9-2.8,1.4-4.9,1.4c-2.6,0-4.8-0.7-6.7-2.2s-3.4-3.8-4.6-6.9c-0.1-0.2-0.3-0.3-0.6-0.2c-0.3,0-0.5,0.1-0.5,0.3l0.2,6.8
		c0,0.5,0.2,0.9,0.6,1.1c2.6,2,5.5,2.9,8.9,2.9c4.1,0,7.3-1.1,9.7-3.3c2.4-2.2,3.5-4.8,3.5-8c0-1.8-0.4-3.4-1.3-4.7
		c-0.9-1.3-2-2.3-3.2-3.2c-1.3-0.8-3-1.8-5.1-2.8c-3-1.4-5.2-2.8-6.6-4.1C372.3,46.9,371.6,45.1,371.6,42.8"/>
	<path class="st0" d="M344.8,74.4c2.6,0,5-0.4,7.2-1.3s4.4-2.3,6.5-4.2c0.2-0.1,0.2-0.3,0-0.5s-0.3-0.3-0.5-0.3h-0.2
		c-2.5,2.2-5.7,3.3-9.7,3.3c-5.4,0-9.4-1.7-12.1-5.2s-4.1-7.9-4.1-13.2c0-4.7,1-8.4,3.1-11.1c2-2.7,5-4.1,8.7-4.1
		c1.8,0,3.3,0.3,4.4,0.9s2.1,1.5,2.9,2.7c1.1,1.8,2.3,2.6,3.8,2.6c0.8,0,1.5-0.3,2-0.8s0.8-1.2,0.8-1.9c0-1.4-1.1-2.7-3.4-3.8
		c-2.2-1.1-4.7-1.6-7.4-1.6c-3.3,0-6.5,0.8-9.6,2.4s-5.7,3.9-7.7,6.9s-3,6.5-3,10.5c0,3.2,0.7,6.1,2,9s3.4,5.2,6.1,6.9
		C337.4,73.5,340.8,74.4,344.8,74.4"/>
	<path class="st0" d="M301.6,73.2c1.4,0,2.6,0,3.5-0.1L310,73l5,0.1c0.8,0.1,2,0.1,3.4,0.1c0.2,0,0.3-0.2,0.3-0.6s-0.1-0.6-0.3-0.6
		c-1.8,0-3.2-0.2-4-0.5c-0.9-0.3-1.4-0.9-1.7-1.8c-0.3-0.9-0.4-2.3-0.4-4.2v-18c0-2.8,0-5.2,0.1-7.3c0.1-2.1,0.1-3.4,0.1-3.7
		c0-0.2-0.1-0.3-0.2-0.5c-0.2-0.1-0.3-0.2-0.4-0.2l-0.4,0.1l-11.7,5.5c-0.3,0.1-0.3,0.3-0.2,0.7c0.1,0.3,0.3,0.5,0.6,0.5h0.1
		c1.8-0.9,3.3-1.4,4.5-1.4c1.1,0,1.9,0.5,2.4,1.5s0.7,2.7,0.7,5v17.9c0,1.9-0.2,3.3-0.5,4.2c-0.3,0.9-0.9,1.5-1.7,1.8
		c-0.9,0.3-2.2,0.5-4,0.5c-0.1,0-0.2,0.2-0.2,0.6C301.4,73,301.4,73.2,301.6,73.2"/>
	<path class="st0" d="M292.1,68.9c-2.2,1.7-4.8,2.6-7.7,2.6c-5.1,0-7.7-2.6-7.7-7.8V39.9c4.9,0,9.3,0.5,13,1.4
		c0.3,0.1,0.5-0.2,0.7-0.7s0.3-1,0.3-1.5c0-0.6-0.1-1.1-0.2-1.6c-0.1-0.4-0.3-0.6-0.5-0.6c-4.6,0.6-9,0.9-13.3,0.9V31
		c0-0.2-0.2-0.3-0.7-0.3s-0.8,0.1-0.8,0.3c0,2-0.7,3.7-2.2,5s-3.4,2-5.8,2c-0.2,0-0.3,0.2-0.3,0.6s0.1,0.6,0.3,0.6
		c1.6,0,2.7,0.1,3.3,0.3c0.6,0.2,1.1,0.7,1.3,1.3c0.2,0.7,0.3,1.8,0.3,3.5v22.5c0,2.7,0.8,4.6,2.5,5.8c1.6,1.2,3.7,1.7,6.3,1.7
		c1.9,0,3.7-0.3,5.5-1s3.8-1.9,6.1-3.5c0.2-0.1,0.2-0.3,0.1-0.6C292.5,68.9,292.3,68.8,292.1,68.9L292.1,68.9z"/>
	<path class="st0" d="M244.3,37.8c2.4,0,4.3,0.7,5.8,2.1c1.4,1.4,2.2,3.4,2.2,6l-18.6,0.5c0.8-2.8,2-4.9,3.8-6.4
		C239.2,38.5,241.5,37.8,244.3,37.8 M257.7,68.1c-2.8,2.1-6.1,3.2-9.8,3.2c-4.7,0-8.3-1.7-11-5.2s-4-8-4-13.5c0-1.7,0.2-3.4,0.5-5.2
		l23.4-0.1c0.4,0,0.7-0.2,0.9-0.5c0.2-0.3,0.2-0.9,0.2-1.6c0-2.9-0.9-5.2-2.7-6.9c-1.8-1.7-4.4-2.5-7.7-2.5c-3.7,0-7.1,0.9-10.2,2.7
		c-3.1,1.8-5.5,4.2-7.2,7.3c-1.8,3.1-2.6,6.5-2.6,10.3c0,3.2,0.7,6.2,2,8.9c1.3,2.7,3.3,5,6,6.7c2.6,1.7,5.8,2.6,9.5,2.6
		c4.8,0,9.4-1.8,13.5-5.3c0.1-0.2,0.1-0.4,0-0.6C258.2,68.2,258,68.1,257.7,68.1L257.7,68.1z"/>
	<path class="st0" d="M220.9,72.1c-1.8,0-3.2-0.2-4-0.5c-0.9-0.3-1.4-0.9-1.7-1.8c-0.3-0.9-0.5-2.3-0.5-4.2V47.3
		c0-3.8-0.9-6.6-2.8-8.6c-1.9-1.9-4.5-2.9-8-2.9c-2.5,0-5,0.6-7.3,1.9c-2.4,1.3-4.8,3.4-7.3,6.3V5.4c0-0.4-0.2-0.7-0.7-0.7h-0.2
		l-11.6,5.7c-0.3,0.1-0.3,0.3-0.2,0.6c0.1,0.3,0.3,0.5,0.5,0.5h0.2c2-0.9,3.5-1.4,4.5-1.4c1.1,0,1.9,0.5,2.4,1.5
		c0.4,1,0.7,2.7,0.7,5v49c0,1.9-0.2,3.3-0.5,4.2c-0.3,0.9-0.9,1.5-1.7,1.8c-0.8,0.3-2.1,0.5-4,0.5c-0.2,0-0.3,0.2-0.3,0.6
		s0.1,0.6,0.3,0.6c1.4,0,2.6,0,3.4-0.1l5-0.1l4.9,0.1c0.9,0.1,2,0.1,3.5,0.1c0.1,0,0.2-0.2,0.2-0.6s-0.1-0.6-0.2-0.6
		c-1.8,0-3.2-0.2-4-0.5c-0.9-0.3-1.4-0.9-1.7-1.8c-0.3-0.9-0.5-2.3-0.5-4.2V45.4c1.8-2,3.7-3.6,5.9-4.8c2.1-1.2,4.2-1.7,6.2-1.7
		c3,0,5.3,0.9,6.7,2.7c1.4,1.8,2.2,4.7,2.2,8.5v15.4c0,1.9-0.2,3.3-0.5,4.2c-0.3,0.9-0.9,1.5-1.7,1.8c-0.8,0.3-2.1,0.5-4,0.5
		c-0.2,0-0.3,0.2-0.3,0.6s0.1,0.6,0.3,0.6c1.4,0,2.6,0,3.4-0.1l5-0.1l4.9,0.1c0.9,0.1,2,0.1,3.5,0.1c0.1,0,0.2-0.2,0.2-0.6
		C221.1,72.3,221.1,72.1,220.9,72.1"/>
	<path class="st0" d="M172.1,68.9c-2.2,1.7-4.8,2.6-7.7,2.6c-5.1,0-7.7-2.6-7.7-7.8V39.9c4.9,0,9.3,0.5,13,1.4
		c0.3,0.1,0.5-0.2,0.7-0.7s0.3-1,0.3-1.5c0-0.6-0.1-1.1-0.2-1.6c-0.1-0.4-0.3-0.6-0.5-0.6c-4.6,0.6-9,0.9-13.3,0.9V31
		c0-0.2-0.2-0.3-0.7-0.3s-0.8,0.1-0.8,0.3c0,2-0.7,3.7-2.2,5s-3.4,2-5.8,2c-0.2,0-0.3,0.2-0.3,0.6s0.1,0.6,0.3,0.6
		c1.6,0,2.7,0.1,3.3,0.3c0.6,0.2,1.1,0.7,1.3,1.3c0.2,0.7,0.3,1.8,0.3,3.5v22.5c0,2.7,0.8,4.6,2.5,5.8c1.6,1.2,3.7,1.7,6.3,1.7
		c1.9,0,3.7-0.3,5.5-1s3.8-1.9,6.1-3.5c0.2-0.1,0.2-0.3,0.1-0.6C172.5,68.9,172.3,68.8,172.1,68.9L172.1,68.9z"/>
	<path class="st0" d="M119.4,42.8c0-1.8,0.5-3.1,1.5-4s2.3-1.4,4-1.4c2.3,0,4.5,0.7,6.6,2c2.1,1.4,3.1,3,3.1,5.1
		c0,0.1,0.2,0.2,0.6,0.2s0.6-0.1,0.6-0.2l0.1-3.7c0.1-0.7,0.1-1.6,0.1-2.8c0-0.3,0-0.4-0.1-0.6c-0.1-0.1-0.3-0.3-0.7-0.5
		c-2.1-0.9-4.4-1.4-6.7-1.4c-3.4,0-6.4,0.9-8.9,2.7c-2.5,1.8-3.8,4.4-3.8,7.7c0,2,0.4,3.6,1.3,4.9s1.9,2.4,3.1,3.2
		c1.2,0.8,2.9,1.7,5,2.7c2,0.9,3.6,1.8,4.8,2.6c1.2,0.8,2.1,1.7,2.9,3c0.8,1.2,1.2,2.8,1.2,4.6c0,1.8-0.6,3.2-1.7,4.2
		c-1.1,0.9-2.8,1.4-4.9,1.4c-2.6,0-4.8-0.7-6.7-2.2c-1.9-1.5-3.4-3.8-4.6-6.9c-0.1-0.2-0.3-0.3-0.6-0.2c-0.3,0-0.5,0.1-0.5,0.3
		l0.2,6.8c0,0.5,0.2,0.9,0.6,1.1c2.6,2,5.5,2.9,8.9,2.9c4.1,0,7.3-1.1,9.7-3.3c2.4-2.2,3.5-4.8,3.5-8c0-1.8-0.4-3.4-1.3-4.7
		c-0.9-1.3-2-2.3-3.2-3.2c-1.3-0.8-3-1.8-5.1-2.8c-3-1.4-5.2-2.8-6.6-4.1C120.1,46.9,119.4,45.1,119.4,42.8"/>
	<path class="st0" d="M91.4,37.8c2.4,0,4.3,0.7,5.8,2.1c1.4,1.4,2.2,3.4,2.2,6l-18.6,0.5c0.8-2.8,2-4.9,3.8-6.4
		C86.3,38.5,88.6,37.8,91.4,37.8 M104.8,68.1c-2.8,2.1-6.1,3.2-9.8,3.2c-4.7,0-8.3-1.7-11-5.2s-4-8-4-13.5c0-1.7,0.2-3.4,0.5-5.2
		l23.4-0.1c0.4,0,0.7-0.2,0.9-0.5s0.2-0.9,0.2-1.6c0-2.9-0.9-5.2-2.7-6.9c-1.8-1.7-4.4-2.5-7.7-2.5c-3.7,0-7.1,0.9-10.2,2.7
		c-3.1,1.8-5.5,4.2-7.2,7.3c-1.8,3.1-2.6,6.5-2.6,10.3c0,3.2,0.7,6.2,2,8.9c1.3,2.7,3.3,5,6,6.7c2.6,1.7,5.8,2.6,9.5,2.6
		c4.9,0,9.4-1.8,13.5-5.3c0.1-0.2,0.1-0.4,0-0.6C105.3,68.2,105.1,68.1,104.8,68.1L104.8,68.1z"/>
	<path class="st0" d="M34.7,20.7l8.8,18.7H27L34.7,20.7z M69.8,72.1c-1.5,0-2.7-0.3-3.8-1s-2.2-1.8-3.4-3.5
		c-1.1-1.7-2.4-4.1-3.9-7.3L36.8,13.2c-0.1-0.2-0.2-0.3-0.5-0.3s-0.5,0.1-0.6,0.3L15.9,60.7c-1.3,3-2.4,5.4-3.5,7s-2.3,2.8-3.5,3.4
		S6.2,72,4.4,72c-0.3,0-0.5,0.2-0.5,0.6s0.2,0.6,0.5,0.6c1.2,0,2.7-0.1,4.6-0.2c2.1-0.1,4-0.2,5.6-0.2c1.8,0,3.8,0.1,6.2,0.2
		c2.1,0.1,3.8,0.2,4.9,0.2c0.3,0,0.5-0.2,0.5-0.6S26,72,25.7,72c-3.2,0-5.6-0.4-7.1-1.2c-1.5-0.8-2.3-2.1-2.3-4
		c0-1.4,0.4-3.2,1.3-5.3l8.5-20.4h18.1l11.2,24.1c0.7,1.6,1,2.8,1,3.7c0,1.1-0.6,1.9-1.7,2.4c-1.1,0.5-3,0.7-5.6,0.7
		c-0.3,0-0.4,0.2-0.4,0.6s0.1,0.6,0.4,0.6c1,0,2.5-0.1,4.5-0.2c2.1-0.1,3.9-0.2,5.2-0.2c1.1,0,2.9,0.1,5.3,0.2
		c2.5,0.1,4.3,0.2,5.5,0.2c0.3,0,0.4-0.2,0.4-0.6C70.1,72.3,70,72.1,69.8,72.1"/>
</g>
</svg>
