<?xml version="1.0" encoding="utf-8"?>
<!-- Generator: Adobe Illustrator 23.0.1, SVG Export Plug-In . SVG Version: 6.00 Build 0)  -->
<svg version="1.1" id="Layer_1" xmlns="http://www.w3.org/2000/svg" xmlns:xlink="http://www.w3.org/1999/xlink" x="0px" y="0px"
	 viewBox="0 0 391.9 113.6" style="enable-background:new 0 0 391.9 113.6;" xml:space="preserve">
<style type="text/css">
	.st0{fill:#8C9091;}
	.st1{fill:#182743;}
</style>
<g>
	<path class="st0" d="M307.9,105.2c-0.3,0.3-0.5,0.4-0.7,0.4c-0.1,0-0.2,0-0.3-0.1c-0.1-0.1-0.1-0.2-0.1-0.3s0.1-0.6,0.4-1.5
		l1.1-3.3c0.3-0.8,0.4-1.4,0.4-1.7c0-0.5-0.1-0.8-0.4-1.1c-0.3-0.2-0.6-0.4-1-0.4c-1.2,0-2.4,1.2-3.6,3.7c0.5-1.2,0.7-2.1,0.7-2.7
		c0-0.3-0.1-0.6-0.2-0.7s-0.3-0.2-0.6-0.2c-0.8,0-1.6,0.8-2.4,2.3h0.5c0.6-1,1-1.5,1.4-1.5c0.1,0,0.2,0,0.2,0.1s0.1,0.1,0.1,0.3
		s-0.2,0.8-0.5,1.8l-1.8,5.8h1.2l0.5-1.6c0.6-2,1.3-3.6,2.1-4.8c0.8-1.2,1.5-1.8,2-1.8c0.2,0,0.4,0.1,0.5,0.2
		c0.1,0.1,0.1,0.3,0.1,0.5c0,0.3-0.1,0.8-0.4,1.7l-1.1,3.1c-0.3,0.9-0.5,1.5-0.5,1.8c0,0.4,0.1,0.6,0.3,0.8c0.2,0.2,0.5,0.3,0.8,0.3
		c0.4,0,0.9-0.2,1.3-0.6c0.4-0.4,0.8-0.9,1.3-1.7h-0.5C308.5,104.5,308.2,104.9,307.9,105.2 M295.8,100.2c0.6-1.6,1.4-2.4,2.2-2.4
		c0.4,0,0.6,0.1,0.8,0.4c0.2,0.2,0.3,0.6,0.3,1.1c0,0.9-0.3,2.2-0.9,4c-0.6,1.7-1.3,2.6-2.3,2.6c-0.3,0-0.6-0.1-0.8-0.4
		c-0.2-0.3-0.3-0.6-0.3-0.9C294.8,103.2,295.1,101.8,295.8,100.2 M294.4,105.5c0.4,0.4,0.9,0.7,1.5,0.7s1.3-0.3,1.9-0.8
		c0.7-0.5,1.2-1.2,1.6-2.2s0.7-2,0.7-3c0-0.9-0.2-1.6-0.6-2.1s-0.9-0.8-1.5-0.8c-0.7,0-1.4,0.3-2.1,0.9c-0.7,0.6-1.3,1.4-1.6,2.3
		c-0.4,1-0.6,1.9-0.6,2.7C293.7,104.3,294,105.1,294.4,105.5 M286.9,101.3c0.6-1.3,1.1-2.2,1.6-2.7s1-0.8,1.4-0.8
		c0.3,0,0.5,0.1,0.7,0.3s0.3,0.4,0.3,0.7c0,0.4-0.3,1.3-0.8,2.8s-1.1,2.5-1.7,3.1s-1.1,1-1.6,1c-0.3,0-0.5-0.1-0.6-0.3
		s-0.2-0.5-0.2-0.9C286.1,103.6,286.3,102.6,286.9,101.3 M291.4,105.1c-0.2,0.2-0.5,0.4-0.7,0.4c-0.1,0-0.2,0-0.3-0.1
		c-0.1-0.1-0.1-0.2-0.1-0.4s0.2-1,0.6-2.3l3.3-10.8H294c-0.6,0.2-1.4,0.4-2.4,0.4l-0.1,0.4h0.3c0.4,0,0.6,0,0.7,0.1s0.1,0.2,0.1,0.3
		s-0.1,0.4-0.2,0.9l-1.2,4.1c-0.1-0.3-0.3-0.5-0.5-0.6s-0.5-0.2-0.8-0.2c-0.6,0-1.3,0.3-2.1,0.9c-0.8,0.6-1.5,1.5-2,2.6
		S285,103,285,104c0,0.7,0.2,1.2,0.5,1.6c0.3,0.4,0.7,0.6,1.2,0.6c0.8,0,1.7-0.6,2.7-1.8c0,0.2-0.1,0.3-0.1,0.5c0,0.4,0.1,0.8,0.3,1
		c0.2,0.2,0.5,0.3,0.8,0.3c0.4,0,0.8-0.2,1.3-0.7c0.5-0.4,0.9-0.9,1.2-1.5h-0.5C291.9,104.5,291.7,104.9,291.4,105.1 M282.7,105.2
		c-0.3,0.3-0.5,0.4-0.7,0.4c-0.1,0-0.2,0-0.3-0.1c-0.1-0.1-0.1-0.2-0.1-0.3s0.1-0.6,0.4-1.5l1.1-3.3c0.3-0.8,0.4-1.4,0.4-1.7
		c0-0.5-0.1-0.8-0.4-1.1c-0.3-0.2-0.6-0.4-1-0.4c-1.2,0-2.4,1.2-3.6,3.7c0.5-1.2,0.7-2.1,0.7-2.7c0-0.3-0.1-0.6-0.2-0.7
		s-0.3-0.2-0.6-0.2c-0.8,0-1.6,0.8-2.4,2.3h0.5c0.6-1,1-1.5,1.4-1.5c0.1,0,0.2,0,0.2,0.1s0.1,0.1,0.1,0.3s-0.2,0.8-0.5,1.8l-1.8,5.8
		h1.2l0.5-1.6c0.6-2,1.3-3.6,2.1-4.8c0.8-1.2,1.5-1.8,2-1.8c0.2,0,0.4,0.1,0.5,0.2c0.1,0.1,0.1,0.3,0.1,0.5c0,0.3-0.1,0.8-0.4,1.7
		l-1.1,3.1c-0.3,0.9-0.5,1.5-0.5,1.8c0,0.4,0.1,0.6,0.3,0.8c0.2,0.2,0.5,0.3,0.8,0.3c0.4,0,0.9-0.2,1.3-0.6c0.4-0.4,0.8-0.9,1.3-1.7
		h-0.5C283.2,104.5,282.9,104.9,282.7,105.2 M270.5,100.2c0.6-1.6,1.4-2.4,2.2-2.4c0.4,0,0.6,0.1,0.8,0.4c0.2,0.2,0.3,0.6,0.3,1.1
		c0,0.9-0.3,2.2-0.9,4c-0.6,1.7-1.3,2.6-2.3,2.6c-0.3,0-0.6-0.1-0.8-0.4c-0.2-0.3-0.3-0.6-0.3-0.9
		C269.6,103.2,269.9,101.8,270.5,100.2 M269.1,105.5c0.4,0.4,0.9,0.7,1.5,0.7s1.3-0.3,1.9-0.8c0.7-0.5,1.2-1.2,1.6-2.2s0.7-2,0.7-3
		c0-0.9-0.2-1.6-0.6-2.1s-0.9-0.8-1.5-0.8c-0.7,0-1.4,0.3-2.1,0.9c-0.7,0.6-1.3,1.4-1.6,2.3c-0.4,1-0.6,1.9-0.6,2.7
		C268.5,104.3,268.7,105.1,269.1,105.5 M266.3,104.5c-0.7,0.7-1.8,1-3.2,1h-0.7c-0.9,0-1.4-0.1-1.7-0.2c-0.3-0.2-0.4-0.4-0.4-0.7
		c0-0.1,0.1-0.6,0.3-1.2l2.6-8.5c0.3-0.9,0.5-1.4,0.6-1.6c0.1-0.2,0.3-0.4,0.6-0.5c0.3-0.1,0.6-0.2,1.1-0.2h0.4l0.1-0.5h-5.7
		l-0.1,0.5h0.3c0.9,0,1.3,0.2,1.3,0.7c0,0.2-0.1,0.6-0.3,1.3l-2.7,8.8c-0.2,0.7-0.4,1.1-0.5,1.3s-0.3,0.4-0.6,0.5
		c-0.3,0.2-0.7,0.2-1.1,0.2h-0.3l-0.1,0.5h11l1.1-3.5h-0.4C267.5,103.1,267,103.8,266.3,104.5 M249.6,105.1
		c-0.3,0.3-0.6,0.5-0.9,0.5c-0.2,0-0.3-0.1-0.4-0.2c-0.1-0.1-0.1-0.3-0.1-0.5c0-0.3,0.1-0.8,0.3-1.3c0.1-0.4,0.2-0.8,0.3-0.9
		l3.3-10.8h-0.3c-0.5,0.2-1.4,0.3-2.5,0.4l-0.1,0.4h0.4c0.4,0,0.6,0,0.7,0.1s0.1,0.2,0.1,0.3s-0.1,0.5-0.3,1.2l-2.4,7.9
		c-0.4,1.5-0.7,2.4-0.7,2.7c0,0.4,0.1,0.7,0.3,0.9c0.2,0.2,0.5,0.4,0.9,0.4c1.1,0,2-0.9,2.7-2.7h-0.4
		C250.3,104.3,250,104.8,249.6,105.1 M240.6,100.3c0.9-1.6,1.8-2.5,2.6-2.5c0.3,0,0.5,0.1,0.6,0.3s0.2,0.4,0.2,0.7
		c0,0.5-0.2,1.4-0.7,2.8c-0.5,1.4-1,2.4-1.6,3c-0.6,0.7-1.2,1-1.6,1c-0.3,0-0.5-0.1-0.6-0.3s-0.2-0.6-0.2-1
		C239.3,103.2,239.7,101.9,240.6,100.3 M244.4,98.3c-0.1-0.3-0.2-0.6-0.4-0.8c-0.2-0.2-0.5-0.3-0.8-0.3c-0.6,0-1.3,0.4-2.2,1.1
		c-0.9,0.7-1.5,1.6-2.1,2.6c-0.5,1.1-0.8,2.1-0.8,3c0,0.7,0.2,1.2,0.5,1.6s0.8,0.6,1.2,0.6c0.5,0,1.1-0.3,1.6-0.8
		c0.6-0.5,1-1,1.3-1.6c-0.1,0.4-0.2,0.8-0.2,1.1s0.1,0.6,0.3,0.9c0.2,0.2,0.4,0.4,0.7,0.4c0.4,0,0.9-0.2,1.4-0.8
		c0.5-0.5,0.9-1.1,1.1-1.7h-0.4c-0.6,1.1-1.2,1.6-1.6,1.6c-0.1,0-0.2,0-0.3-0.1c-0.1-0.1-0.1-0.2-0.1-0.3c0-0.2,0.1-0.7,0.4-1.6
		l1.8-6h-1.2L244.4,98.3z M236.7,97.6l0.9-3.1h-1.2l-0.9,3.1h-1.4L234,98h1.4l-1.3,4.4c-0.4,1.4-0.6,2.2-0.6,2.6
		c0,0.4,0.1,0.7,0.3,0.9c0.2,0.2,0.5,0.4,0.8,0.4c0.4,0,0.9-0.3,1.5-0.8c0.5-0.5,1-1.3,1.4-2.3H237c-0.3,0.7-0.7,1.3-1.1,1.7
		c-0.4,0.5-0.7,0.7-1,0.7c-0.1,0-0.2,0-0.3-0.1c-0.1-0.1-0.1-0.2-0.1-0.4s0.2-1.1,0.7-2.6l1.3-4.5h1.5l0.1-0.4L236.7,97.6
		L236.7,97.6z M230.1,105.5c-0.2,0-0.3,0-0.3-0.1s-0.1-0.2-0.1-0.4s0.2-0.8,0.5-1.8l1-2.7c0.4-1,0.5-1.6,0.5-2s-0.1-0.6-0.3-0.9
		c-0.2-0.2-0.5-0.3-0.8-0.3c-0.4,0-0.9,0.2-1.3,0.6c-0.5,0.4-0.9,1-1.3,1.8h0.5c0.2-0.3,0.4-0.7,0.8-1.1c0.4-0.4,0.7-0.6,0.9-0.6
		c0.1,0,0.2,0,0.3,0.1c0.1,0.1,0.1,0.2,0.1,0.3c0,0.2-0.1,0.6-0.4,1.3l-1.2,3.1c-0.4,1-0.6,1.7-0.6,2.1c0,0.4,0.1,0.8,0.4,1
		c0.2,0.2,0.5,0.3,0.8,0.3c0.5,0,1-0.3,1.5-0.8s0.9-1.1,1.3-1.8h-0.5C231.2,104.9,230.6,105.5,230.1,105.5 M231.4,93.4
		c0.2,0.2,0.4,0.3,0.6,0.3s0.5-0.1,0.6-0.3c0.2-0.2,0.3-0.4,0.3-0.6c0-0.2-0.1-0.5-0.3-0.6c-0.2-0.2-0.4-0.3-0.6-0.3
		s-0.5,0.1-0.6,0.3c-0.2,0.2-0.3,0.4-0.3,0.6S231.2,93.2,231.4,93.4 M221.9,101.9c0.5-1.7,1.1-2.8,1.7-3.3s1.1-0.8,1.5-0.8
		c0.3,0,0.5,0.1,0.6,0.3s0.2,0.5,0.2,1c0,0.7-0.2,1.7-0.6,3s-0.9,2.3-1.4,2.8c-0.5,0.6-1,0.9-1.5,0.9c-0.3,0-0.6-0.1-0.8-0.3
		s-0.3-0.5-0.3-0.8s0.1-0.7,0.3-1.3L221.9,101.9z M221.3,99c0.2-0.3,0.3-0.5,0.3-0.5c0.3-0.5,0.5-0.8,0.5-0.9
		c-0.6,1.5-1.1,3-1.6,4.5l-2.1,7c-0.2,0.8-0.4,1.2-0.5,1.3s-0.5,0.1-1.1,0.1h-0.2l-0.1,0.4h4.3l0.1-0.4h-0.5c-0.5,0-0.8,0-0.9-0.1
		s-0.1-0.2-0.1-0.3s0.1-0.4,0.2-0.9l1.2-4c0.2,0.7,0.7,1,1.4,1c0.8,0,1.5-0.3,2.3-1s1.4-1.6,1.8-2.6s0.6-2,0.6-2.8
		c0-0.7-0.2-1.3-0.5-1.8c-0.4-0.5-0.8-0.7-1.3-0.7c-0.8,0-1.7,0.7-2.6,2l0.9-2.4l0.7-2.3h-1.2l-0.1,0.5c-0.2,0.8-0.4,1.3-0.6,1.7
		s-0.5,1-1.1,1.9l-1.9,3.1h0.5L221.3,99z M217.1,102.5c-0.1-0.4-0.4-0.9-0.9-1.7s-0.7-1.4-0.7-1.9c0-0.3,0.1-0.6,0.4-0.8
		s0.6-0.3,1-0.3c0.5,0,0.8,0.2,0.9,0.7c0.1,0.4,0.3,0.6,0.5,0.6c0.3,0,0.4-0.2,0.4-0.5s-0.2-0.5-0.5-0.8c-0.3-0.2-0.8-0.4-1.2-0.4
		c-0.7,0-1.2,0.2-1.8,0.7c-0.5,0.4-0.8,1-0.8,1.7c0,0.5,0.3,1.3,0.9,2.4c0.5,1,0.8,1.7,0.8,2.1c0,0.5-0.2,0.9-0.6,1.2
		s-0.8,0.4-1.2,0.4c-0.3,0-0.5-0.1-0.8-0.2c-0.2-0.1-0.3-0.3-0.3-0.4c0,0,0-0.1,0-0.2c0-0.2,0.1-0.3,0.1-0.4c0-0.4-0.2-0.6-0.6-0.6
		c-0.2,0-0.3,0.1-0.4,0.2c-0.1,0.1-0.2,0.3-0.2,0.5c0,0.4,0.2,0.7,0.5,1c0.4,0.3,0.9,0.5,1.6,0.5c0.9,0,1.7-0.3,2.2-0.8
		s0.7-1.1,0.7-1.7C217.4,103.3,217.3,102.9,217.1,102.5 M207.3,100.2c0.6-1.6,1.3-2.4,2.2-2.4c0.4,0,0.6,0.1,0.8,0.4
		c0.2,0.2,0.3,0.6,0.3,1.1c0,0.9-0.3,2.2-0.9,4c-0.6,1.7-1.3,2.6-2.3,2.6c-0.3,0-0.6-0.1-0.8-0.4c-0.2-0.3-0.3-0.6-0.3-0.9
		C206.4,103.2,206.7,101.8,207.3,100.2 M205.9,105.5c0.4,0.4,0.9,0.7,1.5,0.7s1.3-0.3,1.9-0.8c0.7-0.5,1.2-1.2,1.6-2.2s0.7-2,0.7-3
		c0-0.9-0.2-1.6-0.6-2.1s-0.9-0.8-1.5-0.8c-0.7,0-1.4,0.3-2.1,0.9c-0.7,0.6-1.3,1.4-1.6,2.3c-0.4,1-0.6,1.9-0.6,2.7
		C205.3,104.3,205.5,105.1,205.9,105.5 M199.6,103.3c-0.2,0.7-0.4,1.2-0.5,1.4s-0.3,0.4-0.6,0.6c-0.3,0.2-0.7,0.2-1.2,0.2l-0.1,0.5
		h5.5l0.1-0.5c-1,0-1.6-0.3-1.6-1c0-0.2,0.1-0.6,0.3-1.2l2.6-8.5c0.3-0.8,0.4-1.4,0.5-1.6c0.1-0.2,0.3-0.4,0.6-0.5
		c0.3-0.1,0.6-0.2,1-0.2l0.1-0.5h-5l-0.1,0.5c0.9,0,1.4,0.2,1.4,0.7c0,0.2-0.1,0.6-0.3,1.3l-1.2,3.9h-6.6l1.1-3.6
		c0.3-0.9,0.5-1.4,0.6-1.6c0.1-0.2,0.3-0.4,0.6-0.5c0.3-0.1,0.6-0.2,1.1-0.2L198,92h-5.2l-0.1,0.5c0.6,0,0.9,0.1,1.2,0.2
		c0.2,0.1,0.3,0.3,0.3,0.6c0,0.2-0.1,0.6-0.3,1.3l-2.7,8.8c-0.2,0.7-0.4,1.2-0.5,1.4s-0.3,0.4-0.6,0.5c-0.3,0.1-0.7,0.2-1.1,0.2
		l-0.1,0.5h5.3l0.1-0.5c-1,0-1.5-0.3-1.5-1c0-0.2,0.1-0.6,0.3-1.2l1.3-4.3h6.6L199.6,103.3z M180.9,99c0.6-0.8,1-1.2,1.4-1.2
		c0.2,0,0.4,0.1,0.5,0.2c0.1,0.1,0.2,0.3,0.2,0.6c0,0.6-0.4,1.2-1.1,1.9s-1.5,1.2-2.4,1.6C179.9,100.8,180.3,99.8,180.9,99
		 M180.1,105.6c-0.3,0-0.6-0.1-0.8-0.3c-0.2-0.2-0.3-0.5-0.3-1s0.1-1.1,0.3-1.7c1.5-0.6,2.6-1.3,3.3-2c0.7-0.7,1.1-1.4,1.1-2.1
		c0-0.4-0.1-0.7-0.3-0.9c-0.2-0.2-0.5-0.4-0.9-0.4c-0.6,0-1.3,0.4-2.2,1.2c-0.8,0.8-1.5,1.7-1.9,2.7c-0.5,1.1-0.7,2-0.7,2.9
		c0,0.7,0.2,1.2,0.5,1.6c0.4,0.4,0.8,0.6,1.4,0.6c1.4,0,2.5-1,3.3-2.9h-0.5C181.8,104.9,181,105.6,180.1,105.6 M173,99.2
		c0.5-1,1.1-1.5,1.7-1.5c0.3,0,0.6,0.1,0.8,0.4s0.2,0.6,0.2,1.1c0,0.6-0.1,1.3-0.4,2.1s-0.6,1.4-0.9,1.7s-0.6,0.4-1,0.4
		c-0.3,0-0.6-0.1-0.8-0.3c-0.2-0.2-0.3-0.5-0.3-0.9C172.3,101.1,172.5,100.2,173,99.2 M170.7,104.3c-0.4,0.4-0.7,0.8-0.7,1.2
		c0,0.3,0.1,0.6,0.4,0.8c0.3,0.3,0.9,0.5,2,0.8c1.2,0.3,2,0.5,2.3,0.8c0.4,0.2,0.5,0.5,0.5,0.9c0,0.5-0.3,0.9-0.8,1.2
		s-1.3,0.5-2.3,0.5c-0.9,0-1.6-0.2-2.1-0.5c-0.4-0.3-0.7-0.7-0.7-1.2c0-0.3,0.1-0.6,0.4-0.9c0.2-0.2,0.2-0.3,0.2-0.4
		c0-0.2-0.1-0.3-0.4-0.3c-0.2,0-0.5,0.2-0.9,0.5c-0.3,0.3-0.5,0.7-0.5,1.1c0,0.6,0.3,1.1,1,1.5s1.6,0.6,2.9,0.6s2.3-0.3,3-0.8
		s1.1-1.1,1.1-1.8c0-0.4-0.1-0.8-0.4-1.2c-0.3-0.3-0.7-0.6-1.3-0.8s-1.4-0.4-2.3-0.6c-0.5-0.1-0.9-0.2-1.1-0.4
		c-0.2-0.1-0.3-0.3-0.3-0.5c0-0.6,0.7-1,2.2-1.2c1-0.1,1.8-0.5,2.5-1.2s1-1.6,1-2.8c0-0.6-0.1-1.2-0.4-1.6c0.1-0.2,0.2-0.3,0.4-0.3
		c0.1,0,0.2,0.1,0.3,0.2c0.2,0.2,0.3,0.3,0.5,0.3c0.3,0,0.5-0.2,0.5-0.5c0-0.2-0.1-0.4-0.2-0.5c-0.2-0.1-0.4-0.2-0.6-0.2
		c-0.3,0-0.7,0.2-1.1,0.6c-0.2-0.2-0.4-0.3-0.7-0.4c-0.2-0.1-0.5-0.1-0.8-0.1c-0.9,0-1.7,0.4-2.4,1.2c-0.7,0.8-1.1,1.7-1.1,2.7
		c0,0.5,0.1,1,0.3,1.4c0.2,0.4,0.6,0.7,1,1C171.7,103.6,171.1,103.9,170.7,104.3 M166.6,99c0.6-0.8,1-1.2,1.4-1.2
		c0.2,0,0.4,0.1,0.5,0.2c0.1,0.1,0.2,0.3,0.2,0.6c0,0.6-0.4,1.2-1.1,1.9s-1.5,1.2-2.4,1.6C165.6,100.8,166,99.8,166.6,99
		 M165.8,105.6c-0.3,0-0.6-0.1-0.8-0.3c-0.2-0.2-0.3-0.5-0.3-1s0.1-1.1,0.3-1.7c1.5-0.6,2.6-1.3,3.3-2c0.7-0.7,1.1-1.4,1.1-2.1
		c0-0.4-0.1-0.7-0.3-0.9c-0.2-0.2-0.5-0.4-0.9-0.4c-0.6,0-1.3,0.4-2.2,1.2c-0.8,0.8-1.5,1.7-1.9,2.7c-0.5,1.1-0.7,2-0.7,2.9
		c0,0.7,0.2,1.2,0.5,1.6c0.4,0.4,0.8,0.6,1.4,0.6c1.4,0,2.5-1,3.3-2.9h-0.5C167.6,104.9,166.7,105.6,165.8,105.6 M161.5,105.1
		c-0.3,0.3-0.6,0.5-0.9,0.5c-0.2,0-0.3-0.1-0.4-0.2c-0.1-0.1-0.1-0.3-0.1-0.5c0-0.3,0.1-0.8,0.3-1.3c0.1-0.4,0.2-0.8,0.3-0.9
		l3.3-10.8h-0.3c-0.5,0.2-1.4,0.3-2.5,0.4l-0.1,0.4h0.4c0.4,0,0.6,0,0.7,0.1s0.1,0.2,0.1,0.3s-0.1,0.5-0.3,1.2l-2.4,7.9
		c-0.4,1.5-0.7,2.4-0.7,2.7c0,0.4,0.1,0.7,0.3,0.9c0.2,0.2,0.5,0.4,0.9,0.4c1.1,0,2-0.9,2.7-2.7h-0.4
		C162.2,104.3,161.8,104.8,161.5,105.1 M156.5,105.1c-0.3,0.3-0.6,0.5-0.9,0.5c-0.2,0-0.3-0.1-0.4-0.2c-0.1-0.1-0.1-0.3-0.1-0.5
		c0-0.3,0.1-0.8,0.3-1.3c0.2-0.4,0.2-0.8,0.3-0.9l3.3-10.8h-0.3c-0.5,0.2-1.4,0.3-2.5,0.4l-0.1,0.4h0.4c0.4,0,0.6,0,0.7,0.1
		s0.1,0.2,0.1,0.3s-0.1,0.5-0.3,1.2l-2.4,7.9c-0.4,1.5-0.7,2.4-0.7,2.7c0,0.4,0.1,0.7,0.3,0.9c0.2,0.2,0.5,0.4,0.9,0.4
		c1.1,0,2-0.9,2.7-2.7h-0.4C157.2,104.3,156.8,104.8,156.5,105.1 M148.1,100.2c0.6-1.6,1.3-2.4,2.2-2.4c0.4,0,0.6,0.1,0.8,0.4
		c0.2,0.2,0.3,0.6,0.3,1.1c0,0.9-0.3,2.2-0.9,4c-0.6,1.7-1.3,2.6-2.3,2.6c-0.3,0-0.6-0.1-0.8-0.4c-0.2-0.3-0.3-0.6-0.3-0.9
		C147.2,103.2,147.5,101.8,148.1,100.2 M146.7,105.5c0.4,0.4,0.9,0.7,1.5,0.7s1.3-0.3,1.9-0.8c0.7-0.5,1.2-1.2,1.6-2.2s0.7-2,0.7-3
		c0-0.9-0.2-1.6-0.6-2.1s-0.9-0.8-1.5-0.8c-0.7,0-1.4,0.3-2.1,0.9c-0.7,0.6-1.3,1.4-1.6,2.3c-0.4,1-0.6,1.9-0.6,2.7
		C146.1,104.3,146.3,105.1,146.7,105.5 M139.5,105.7c-1,0-1.7-0.4-2.3-1.1c-0.6-0.8-0.8-1.7-0.8-2.9c0-1.3,0.3-2.9,1-4.6
		s1.4-3,2.3-3.7s1.8-1.1,2.8-1.1c0.9,0,1.6,0.3,2.2,0.9c0.6,0.6,0.8,1.5,0.8,2.7c0,0.2,0,0.3,0,0.5h0.4l0.9-4h-0.4
		c-0.2,0.5-0.4,1.1-0.7,1.6c-0.3-0.7-0.7-1.3-1.3-1.6c-0.6-0.4-1.3-0.5-2.1-0.5c-2,0-3.8,1-5.3,2.9c-1.6,1.9-2.4,4-2.4,6.2
		c0,1.4,0.4,2.6,1.3,3.7c0.9,1.1,2,1.6,3.5,1.6c1.3,0,2.4-0.5,3.4-1.5c0.1,0.5,0.1,1,0.1,1.4h0.4l1.4-4.5h-0.5
		C143,104.3,141.4,105.7,139.5,105.7 M125.9,102.5c-0.1-0.4-0.4-0.9-0.9-1.7s-0.7-1.4-0.7-1.9c0-0.3,0.1-0.6,0.4-0.8s0.6-0.3,1-0.3
		c0.5,0,0.8,0.2,0.9,0.7c0.1,0.4,0.3,0.6,0.5,0.6c0.3,0,0.4-0.2,0.4-0.5s-0.2-0.5-0.5-0.8c-0.3-0.2-0.8-0.4-1.2-0.4
		c-0.7,0-1.2,0.2-1.8,0.7c-0.5,0.4-0.8,1-0.8,1.7c0,0.5,0.3,1.3,0.9,2.4c0.5,1,0.8,1.7,0.8,2.1c0,0.5-0.2,0.9-0.6,1.2
		s-0.8,0.4-1.2,0.4c-0.3,0-0.5-0.1-0.8-0.2c-0.2-0.1-0.3-0.3-0.3-0.4c0,0,0-0.1,0-0.2c0-0.2,0.1-0.3,0.1-0.4c0-0.4-0.2-0.6-0.6-0.6
		c-0.2,0-0.3,0.1-0.4,0.2c-0.1,0.1-0.2,0.3-0.2,0.5c0,0.4,0.2,0.7,0.5,1c0.4,0.3,0.9,0.5,1.6,0.5c0.9,0,1.7-0.3,2.1-0.8
		c0.5-0.5,0.7-1.1,0.7-1.7C126.2,103.3,126.1,102.9,125.9,102.5 M116.7,99.2c0.5-1,1.1-1.5,1.7-1.5c0.3,0,0.6,0.1,0.8,0.4
		c0.2,0.2,0.3,0.6,0.3,1.1c0,0.6-0.1,1.3-0.4,2.1s-0.6,1.4-0.9,1.7s-0.6,0.4-1,0.4c-0.3,0-0.6-0.1-0.8-0.3c-0.2-0.2-0.3-0.5-0.3-0.9
		C115.9,101.1,116.2,100.2,116.7,99.2 M114.3,104.3c-0.4,0.4-0.7,0.8-0.7,1.2c0,0.3,0.1,0.6,0.4,0.8c0.3,0.3,0.9,0.5,2,0.8
		c1.2,0.3,2,0.5,2.3,0.8c0.4,0.2,0.5,0.5,0.5,0.9c0,0.5-0.3,0.9-0.8,1.2s-1.3,0.5-2.3,0.5c-0.9,0-1.6-0.2-2.1-0.5
		c-0.4-0.3-0.7-0.7-0.7-1.2c0-0.3,0.1-0.6,0.4-0.9c0.2-0.2,0.2-0.3,0.2-0.4c0-0.2-0.1-0.3-0.4-0.3c-0.2,0-0.5,0.2-0.9,0.5
		c-0.3,0.3-0.5,0.7-0.5,1.1c0,0.6,0.3,1.1,1,1.5s1.6,0.6,2.9,0.6s2.3-0.3,3-0.8s1.1-1.1,1.1-1.8c0-0.4-0.1-0.8-0.4-1.2
		c-0.3-0.3-0.7-0.6-1.3-0.8c-0.6-0.2-1.4-0.4-2.3-0.6c-0.5-0.1-0.9-0.2-1.1-0.4c-0.2-0.1-0.3-0.3-0.3-0.5c0-0.6,0.7-1,2.2-1.2
		c1-0.1,1.8-0.5,2.5-1.2s1-1.6,1-2.8c0-0.6-0.1-1.2-0.4-1.6c0.1-0.2,0.2-0.3,0.4-0.3c0.1,0,0.2,0.1,0.3,0.2c0.2,0.2,0.3,0.3,0.5,0.3
		c0.3,0,0.5-0.2,0.5-0.5c0-0.2-0.1-0.4-0.2-0.5c-0.2-0.1-0.4-0.2-0.6-0.2c-0.3,0-0.7,0.2-1.1,0.6c-0.2-0.2-0.4-0.3-0.7-0.4
		c-0.2-0.1-0.5-0.1-0.8-0.1c-0.9,0-1.7,0.4-2.4,1.2c-0.7,0.8-1.1,1.7-1.1,2.7c0,0.5,0.1,1,0.3,1.4c0.2,0.4,0.6,0.7,1,1
		C115.4,103.6,114.8,103.9,114.3,104.3 M111.9,105.2c-0.3,0.3-0.5,0.4-0.7,0.4c-0.1,0-0.2,0-0.3-0.1c-0.1-0.1-0.1-0.2-0.1-0.3
		s0.1-0.6,0.4-1.5l1.1-3.3c0.3-0.8,0.4-1.4,0.4-1.7c0-0.5-0.1-0.8-0.4-1.1c-0.3-0.2-0.6-0.4-1-0.4c-1.2,0-2.4,1.2-3.6,3.7
		c0.5-1.2,0.7-2.1,0.7-2.7c0-0.3-0.1-0.6-0.2-0.7s-0.3-0.2-0.6-0.2c-0.8,0-1.6,0.8-2.4,2.3h0.5c0.6-1,1-1.5,1.4-1.5
		c0.1,0,0.2,0,0.2,0.1s0.1,0.1,0.1,0.3s-0.2,0.8-0.5,1.8l-1.8,5.8h1.2l0.5-1.6c0.6-2,1.3-3.6,2.1-4.8c0.8-1.2,1.5-1.8,2-1.8
		c0.2,0,0.4,0.1,0.5,0.2c0.1,0.1,0.1,0.3,0.1,0.5c0,0.3-0.1,0.8-0.4,1.7l-1.1,3.1c-0.3,0.9-0.5,1.5-0.5,1.8c0,0.4,0.1,0.6,0.3,0.8
		c0.2,0.2,0.5,0.3,0.8,0.3c0.4,0,0.9-0.2,1.3-0.6c0.4-0.4,0.8-0.9,1.3-1.7h-0.5C112.5,104.5,112.2,104.9,111.9,105.2 M102.3,105.5
		c-0.1,0-0.3,0-0.3-0.1c-0.1-0.1-0.1-0.2-0.1-0.4s0.2-0.8,0.5-1.8l1-2.7c0.4-1,0.5-1.6,0.5-2s-0.1-0.6-0.3-0.9
		c-0.2-0.2-0.5-0.3-0.8-0.3c-0.4,0-0.9,0.2-1.3,0.6s-0.9,1-1.3,1.8h0.5c0.1-0.3,0.4-0.7,0.8-1.1c0.4-0.4,0.7-0.6,0.9-0.6
		c0.1,0,0.2,0,0.3,0.1s0.1,0.2,0.1,0.3c0,0.2-0.1,0.6-0.4,1.3l-1.2,3.1c-0.4,1-0.6,1.7-0.6,2.1c0,0.4,0.1,0.8,0.4,1
		c0.2,0.2,0.5,0.3,0.8,0.3c0.5,0,1-0.3,1.5-0.8s0.9-1.1,1.3-1.8h-0.5C103.4,104.9,102.8,105.5,102.3,105.5 M103.6,93.4
		c0.2,0.2,0.4,0.3,0.6,0.3c0.2,0,0.5-0.1,0.6-0.3c0.2-0.2,0.3-0.4,0.3-0.6c0-0.2-0.1-0.5-0.3-0.6c-0.2-0.2-0.4-0.3-0.6-0.3
		c-0.2,0-0.5,0.1-0.6,0.3c-0.2,0.2-0.3,0.4-0.3,0.6C103.3,93,103.4,93.2,103.6,93.4 M98.3,105c-0.2,0.1-0.4,0.1-0.6,0.1
		c-0.5,0-0.8-0.3-0.8-1c0-0.2,0-0.3,0-0.6c0.1-0.6,0.1-1.1,0.1-1.4c0-1.1-0.2-1.9-0.7-2.6c-0.5-0.6-1.1-1-1.9-1
		c-0.3,0-0.6,0.1-0.9,0.2c0.1-0.1,0.7-0.8,1.8-2s2.1-2.1,3-2.9c0.9-0.7,1.5-1.2,1.7-1.3c0.3-0.1,0.5-0.2,0.7-0.2
		c0.3,0,0.5,0.2,0.6,0.6c0.1,0.4,0.3,0.6,0.6,0.6c0.2,0,0.4-0.1,0.6-0.2c0.2-0.1,0.2-0.3,0.2-0.6s-0.1-0.6-0.4-0.8
		c-0.2-0.2-0.5-0.3-0.9-0.3c-0.9,0-2,0.6-3.4,1.7c-1.3,1.1-3.1,2.9-5.2,5.2l1.2-3.9c0.3-0.9,0.5-1.4,0.6-1.7
		c0.2-0.2,0.4-0.4,0.6-0.5c0.3-0.1,0.6-0.1,1-0.1l0.1-0.5h-5.4l-0.1,0.5h0.4c0.9,0,1.3,0.2,1.3,0.7c0,0.2-0.1,0.6-0.3,1.3l-2.6,8.7
		c-0.2,0.7-0.4,1.2-0.5,1.4s-0.3,0.4-0.6,0.5s-0.7,0.2-1.1,0.2l-0.1,0.5h5.4l0.1-0.5c-1.1,0-1.6-0.3-1.6-1c0-0.2,0.1-0.6,0.3-1.2
		l0.5-1.7c0.3-1,0.6-1.7,0.8-2c0.3-0.3,0.6-0.5,1-0.5s0.8,0.1,1,0.4c0.3,0.3,0.4,0.7,0.4,1.3c0,0.4-0.1,1-0.2,1.7
		c-0.2,0.7-0.2,1.2-0.2,1.5c0,0.5,0.2,1,0.5,1.3c0.3,0.4,0.8,0.6,1.5,0.6c0.5,0,1-0.1,1.3-0.4c0.4-0.2,0.7-0.6,0.9-1.1h-0.5
		C98.6,104.8,98.4,104.9,98.3,105"/>
</g>
<path class="st1" d="M308.2,23.5c1.1,0,2-0.3,2.6-0.9s0.9-1.5,0.9-2.6s-0.3-2-0.9-2.6s-1.5-0.9-2.6-0.9c-1.2,0-2.1,0.3-2.8,0.9
	c-0.7,0.6-1,1.5-1,2.6s0.3,2,1,2.6C306.1,23.1,307,23.5,308.2,23.5"/>
<g>
	<path class="st1" d="M370.6,41.8c0-1.8,0.5-3.1,1.5-4s2.3-1.4,4-1.4c2.3,0,4.5,0.7,6.6,2c2.1,1.4,3.1,3,3.1,5.1
		c0,0.1,0.2,0.2,0.6,0.2s0.6-0.1,0.6-0.2l0.1-3.7c0.1-0.7,0.1-1.6,0.1-2.8c0-0.3,0-0.4-0.1-0.6s-0.3-0.3-0.7-0.5
		c-2.1-0.9-4.4-1.4-6.7-1.4c-3.4,0-6.4,0.9-8.9,2.7c-2.5,1.8-3.8,4.4-3.8,7.7c0,2,0.4,3.6,1.3,4.9c0.8,1.3,1.9,2.4,3.1,3.2
		c1.2,0.8,2.9,1.7,5,2.7c2,0.9,3.6,1.8,4.8,2.6c1.2,0.8,2.1,1.7,2.9,3c0.8,1.2,1.2,2.8,1.2,4.6c0,1.8-0.6,3.2-1.7,4.2
		c-1.1,0.9-2.8,1.4-4.9,1.4c-2.6,0-4.8-0.7-6.7-2.2s-3.4-3.8-4.6-6.9c-0.1-0.2-0.3-0.3-0.6-0.2c-0.3,0-0.5,0.1-0.5,0.3l0.2,6.8
		c0,0.5,0.2,0.9,0.6,1.1c2.6,2,5.5,2.9,8.9,2.9c4.1,0,7.3-1.1,9.7-3.3c2.4-2.2,3.5-4.8,3.5-8c0-1.8-0.4-3.4-1.3-4.7
		c-0.9-1.3-2-2.3-3.2-3.2c-1.3-0.8-3-1.8-5.1-2.8c-3-1.4-5.2-2.8-6.6-4.1C371.3,45.9,370.6,44.1,370.6,41.8"/>
	<path class="st1" d="M343.8,73.4c2.6,0,5-0.4,7.2-1.3s4.4-2.3,6.5-4.2c0.2-0.1,0.2-0.3,0-0.5s-0.3-0.3-0.5-0.3h-0.2
		c-2.5,2.2-5.7,3.3-9.7,3.3c-5.4,0-9.4-1.7-12.1-5.2s-4.1-7.9-4.1-13.2c0-4.7,1-8.4,3.1-11.1c2-2.7,5-4.1,8.7-4.1
		c1.8,0,3.3,0.3,4.4,0.9s2.1,1.5,2.9,2.7c1.1,1.8,2.3,2.6,3.8,2.6c0.8,0,1.5-0.3,2-0.8s0.8-1.2,0.8-1.9c0-1.4-1.1-2.7-3.4-3.8
		c-2.2-1.1-4.7-1.6-7.4-1.6c-3.3,0-6.5,0.8-9.6,2.4s-5.7,3.9-7.7,6.9s-3,6.5-3,10.5c0,3.2,0.7,6.1,2,9s3.4,5.2,6.1,6.9
		C336.4,72.5,339.8,73.4,343.8,73.4"/>
	<path class="st1" d="M300.6,72.2c1.4,0,2.6,0,3.5-0.1L309,72l5,0.1c0.8,0.1,2,0.1,3.4,0.1c0.2,0,0.3-0.2,0.3-0.6s-0.1-0.6-0.3-0.6
		c-1.8,0-3.2-0.2-4-0.5c-0.9-0.3-1.4-0.9-1.7-1.8c-0.3-0.9-0.4-2.3-0.4-4.2v-18c0-2.8,0-5.2,0.1-7.3c0.1-2.1,0.1-3.4,0.1-3.7
		c0-0.2-0.1-0.3-0.2-0.5c-0.2-0.1-0.3-0.2-0.4-0.2l-0.4,0.1l-11.7,5.5c-0.3,0.1-0.3,0.3-0.2,0.7c0.1,0.3,0.3,0.5,0.6,0.5h0.1
		c1.8-0.9,3.3-1.4,4.5-1.4c1.1,0,1.9,0.5,2.4,1.5s0.7,2.7,0.7,5v17.9c0,1.9-0.2,3.3-0.5,4.2c-0.3,0.9-0.9,1.5-1.7,1.8
		c-0.9,0.3-2.2,0.5-4,0.5c-0.1,0-0.2,0.2-0.2,0.6C300.4,72,300.4,72.2,300.6,72.2"/>
	<path class="st1" d="M291.1,67.9c-2.2,1.7-4.8,2.6-7.7,2.6c-5.1,0-7.7-2.6-7.7-7.8V38.9c4.9,0,9.3,0.5,13,1.4
		c0.3,0.1,0.5-0.2,0.7-0.7s0.3-1,0.3-1.5c0-0.6-0.1-1.1-0.2-1.6c-0.1-0.4-0.3-0.6-0.5-0.6c-4.6,0.6-9,0.9-13.3,0.9V30
		c0-0.2-0.2-0.3-0.7-0.3s-0.8,0.1-0.8,0.3c0,2-0.7,3.7-2.2,5s-3.4,2-5.8,2c-0.2,0-0.3,0.2-0.3,0.6s0.1,0.6,0.3,0.6
		c1.6,0,2.7,0.1,3.3,0.3c0.6,0.2,1.1,0.7,1.3,1.3c0.2,0.7,0.3,1.8,0.3,3.5v22.5c0,2.7,0.8,4.6,2.5,5.8c1.6,1.2,3.7,1.7,6.3,1.7
		c1.9,0,3.7-0.3,5.5-1s3.8-1.9,6.1-3.5c0.2-0.1,0.2-0.3,0.1-0.6C291.5,67.9,291.3,67.8,291.1,67.9L291.1,67.9z"/>
	<path class="st1" d="M243.3,36.8c2.4,0,4.3,0.7,5.8,2.1c1.4,1.4,2.2,3.4,2.2,6l-18.6,0.5c0.8-2.8,2-4.9,3.8-6.4
		C238.2,37.5,240.5,36.8,243.3,36.8 M256.7,67.1c-2.8,2.1-6.1,3.2-9.8,3.2c-4.7,0-8.3-1.7-11-5.2s-4-8-4-13.5c0-1.7,0.2-3.4,0.5-5.2
		l23.4-0.1c0.4,0,0.7-0.2,0.9-0.5c0.2-0.3,0.2-0.9,0.2-1.6c0-2.9-0.9-5.2-2.7-6.9c-1.8-1.7-4.4-2.5-7.7-2.5c-3.7,0-7.1,0.9-10.2,2.7
		c-3.1,1.8-5.5,4.2-7.2,7.3c-1.8,3.1-2.6,6.5-2.6,10.3c0,3.2,0.7,6.2,2,8.9c1.3,2.7,3.3,5,6,6.7c2.6,1.7,5.8,2.6,9.5,2.6
		c4.8,0,9.4-1.8,13.5-5.3c0.1-0.2,0.1-0.4,0-0.6C257.2,67.2,257,67.1,256.7,67.1L256.7,67.1z"/>
	<path class="st1" d="M219.9,71.1c-1.8,0-3.2-0.2-4-0.5c-0.9-0.3-1.4-0.9-1.7-1.8c-0.3-0.9-0.5-2.3-0.5-4.2V46.3
		c0-3.8-0.9-6.6-2.8-8.6c-1.9-1.9-4.5-2.9-8-2.9c-2.5,0-5,0.6-7.3,1.9c-2.4,1.3-4.8,3.4-7.3,6.3V4.4c0-0.4-0.2-0.7-0.7-0.7h-0.2
		l-11.6,5.7c-0.3,0.1-0.3,0.3-0.2,0.6c0.1,0.3,0.3,0.5,0.5,0.5h0.2c2-0.9,3.5-1.4,4.5-1.4c1.1,0,1.9,0.5,2.4,1.5
		c0.4,1,0.7,2.7,0.7,5v49c0,1.9-0.2,3.3-0.5,4.2c-0.3,0.9-0.9,1.5-1.7,1.8c-0.8,0.3-2.1,0.5-4,0.5c-0.2,0-0.3,0.2-0.3,0.6
		s0.1,0.6,0.3,0.6c1.4,0,2.6,0,3.4-0.1l5-0.1l4.9,0.1c0.9,0.1,2,0.1,3.5,0.1c0.1,0,0.2-0.2,0.2-0.6s-0.1-0.6-0.2-0.6
		c-1.8,0-3.2-0.2-4-0.5c-0.9-0.3-1.4-0.9-1.7-1.8c-0.3-0.9-0.5-2.3-0.5-4.2V44.4c1.8-2,3.7-3.6,5.9-4.8c2.1-1.2,4.2-1.7,6.2-1.7
		c3,0,5.3,0.9,6.7,2.7c1.4,1.8,2.2,4.7,2.2,8.5v15.4c0,1.9-0.2,3.3-0.5,4.2c-0.3,0.9-0.9,1.5-1.7,1.8c-0.8,0.3-2.1,0.5-4,0.5
		c-0.2,0-0.3,0.2-0.3,0.6s0.1,0.6,0.3,0.6c1.4,0,2.6,0,3.4-0.1l5-0.1l4.9,0.1c0.9,0.1,2,0.1,3.5,0.1c0.1,0,0.2-0.2,0.2-0.6
		C220.1,71.3,220.1,71.1,219.9,71.1"/>
	<path class="st1" d="M171.1,67.9c-2.2,1.7-4.8,2.6-7.7,2.6c-5.1,0-7.7-2.6-7.7-7.8V38.9c4.9,0,9.3,0.5,13,1.4
		c0.3,0.1,0.5-0.2,0.7-0.7s0.3-1,0.3-1.5c0-0.6-0.1-1.1-0.2-1.6c-0.1-0.4-0.3-0.6-0.5-0.6c-4.6,0.6-9,0.9-13.3,0.9V30
		c0-0.2-0.2-0.3-0.7-0.3s-0.8,0.1-0.8,0.3c0,2-0.7,3.7-2.2,5s-3.4,2-5.8,2c-0.2,0-0.3,0.2-0.3,0.6s0.1,0.6,0.3,0.6
		c1.6,0,2.7,0.1,3.3,0.3c0.6,0.2,1.1,0.7,1.3,1.3c0.2,0.7,0.3,1.8,0.3,3.5v22.5c0,2.7,0.8,4.6,2.5,5.8c1.6,1.2,3.7,1.7,6.3,1.7
		c1.9,0,3.7-0.3,5.5-1s3.8-1.9,6.1-3.5c0.2-0.1,0.2-0.3,0.1-0.6C171.5,67.9,171.3,67.8,171.1,67.9L171.1,67.9z"/>
	<path class="st1" d="M118.4,41.8c0-1.8,0.5-3.1,1.5-4s2.3-1.4,4-1.4c2.3,0,4.5,0.7,6.6,2c2.1,1.4,3.1,3,3.1,5.1
		c0,0.1,0.2,0.2,0.6,0.2s0.6-0.1,0.6-0.2l0.1-3.7c0.1-0.7,0.1-1.6,0.1-2.8c0-0.3,0-0.4-0.1-0.6c-0.1-0.1-0.3-0.3-0.7-0.5
		c-2.1-0.9-4.4-1.4-6.7-1.4c-3.4,0-6.4,0.9-8.9,2.7c-2.5,1.8-3.8,4.4-3.8,7.7c0,2,0.4,3.6,1.3,4.9s1.9,2.4,3.1,3.2
		c1.2,0.8,2.9,1.7,5,2.7c2,0.9,3.6,1.8,4.8,2.6c1.2,0.8,2.1,1.7,2.9,3c0.8,1.2,1.2,2.8,1.2,4.6c0,1.8-0.6,3.2-1.7,4.2
		c-1.1,0.9-2.8,1.4-4.9,1.4c-2.6,0-4.8-0.7-6.7-2.2c-1.9-1.5-3.4-3.8-4.6-6.9c-0.1-0.2-0.3-0.3-0.6-0.2c-0.3,0-0.5,0.1-0.5,0.3
		l0.2,6.8c0,0.5,0.2,0.9,0.6,1.1c2.6,2,5.5,2.9,8.9,2.9c4.1,0,7.3-1.1,9.7-3.3c2.4-2.2,3.5-4.8,3.5-8c0-1.8-0.4-3.4-1.3-4.7
		c-0.9-1.3-2-2.3-3.2-3.2c-1.3-0.8-3-1.8-5.1-2.8c-3-1.4-5.2-2.8-6.6-4.1C119.1,45.9,118.4,44.1,118.4,41.8"/>
	<path class="st1" d="M90.4,36.8c2.4,0,4.3,0.7,5.8,2.1c1.4,1.4,2.2,3.4,2.2,6l-18.6,0.5c0.8-2.8,2-4.9,3.8-6.4
		C85.3,37.5,87.6,36.8,90.4,36.8 M103.8,67.1c-2.8,2.1-6.1,3.2-9.8,3.2c-4.7,0-8.3-1.7-11-5.2s-4-8-4-13.5c0-1.7,0.2-3.4,0.5-5.2
		l23.4-0.1c0.4,0,0.7-0.2,0.9-0.5s0.2-0.9,0.2-1.6c0-2.9-0.9-5.2-2.7-6.9c-1.8-1.7-4.4-2.5-7.7-2.5c-3.7,0-7.1,0.9-10.2,2.7
		c-3.1,1.8-5.5,4.2-7.2,7.3c-1.8,3.1-2.6,6.5-2.6,10.3c0,3.2,0.7,6.2,2,8.9c1.3,2.7,3.3,5,6,6.7c2.6,1.7,5.8,2.6,9.5,2.6
		c4.9,0,9.4-1.8,13.5-5.3c0.1-0.2,0.1-0.4,0-0.6C104.3,67.2,104.1,67.1,103.8,67.1L103.8,67.1z"/>
	<path class="st1" d="M33.7,19.7l8.8,18.7H26L33.7,19.7z M68.8,71.1c-1.5,0-2.7-0.3-3.8-1s-2.2-1.8-3.4-3.5
		c-1.1-1.7-2.4-4.1-3.9-7.3L35.8,12.2c-0.1-0.2-0.2-0.3-0.5-0.3s-0.5,0.1-0.6,0.3L14.9,59.7c-1.3,3-2.4,5.4-3.5,7s-2.3,2.8-3.5,3.4
		S5.2,71,3.4,71c-0.3,0-0.5,0.2-0.5,0.6s0.2,0.6,0.5,0.6c1.2,0,2.7-0.1,4.6-0.2c2.1-0.1,4-0.2,5.6-0.2c1.8,0,3.8,0.1,6.2,0.2
		c2.1,0.1,3.8,0.2,4.9,0.2c0.3,0,0.5-0.2,0.5-0.6S25,71,24.7,71c-3.2,0-5.6-0.4-7.1-1.2c-1.5-0.8-2.3-2.1-2.3-4
		c0-1.4,0.4-3.2,1.3-5.3l8.5-20.4h18.1l11.2,24.1c0.7,1.6,1,2.8,1,3.7c0,1.1-0.6,1.9-1.7,2.4c-1.1,0.5-3,0.7-5.6,0.7
		c-0.3,0-0.4,0.2-0.4,0.6s0.1,0.6,0.4,0.6c1,0,2.5-0.1,4.5-0.2c2.1-0.1,3.9-0.2,5.2-0.2c1.1,0,2.9,0.1,5.3,0.2
		c2.5,0.1,4.3,0.2,5.5,0.2c0.3,0,0.4-0.2,0.4-0.6C69.1,71.3,69,71.1,68.8,71.1"/>
</g>
</svg>
